<?xml version="1.0" standalone="no"?>
<!DOCTYPE svg PUBLIC "-//W3C//DTD SVG 1.1//EN" "http://www.w3.org/Graphics/SVG/1.1/DTD/svg11.dtd" >
<svg xmlns="http://www.w3.org/2000/svg">
<metadata>Generated by IcoMoon</metadata>
<defs>
<font id="pulsodesignsystem" horiz-adv-x="1024">
<font-face units-per-em="1024" ascent="960" descent="-64" />
<missing-glyph horiz-adv-x="1024" />
<glyph unicode="&#x20;" horiz-adv-x="512" d="" />
<glyph unicode="&#xe900;" glyph-name="hours" d="M826.616 424.944c5.615 5.613 13.371 9.085 21.938 9.085s16.323-3.472 21.939-9.085l29.603-29.603 29.603 29.603c5.574 5.389 13.178 8.711 21.557 8.711 17.138 0 31.030-13.893 31.030-31.030 0-8.379-3.321-15.983-8.719-21.566l0.008 0.009-51.51-51.541c-5.617-5.623-13.379-9.101-21.954-9.101s-16.337 3.478-21.954 9.1v0l-51.541 51.541c-5.613 5.615-9.085 13.371-9.085 21.938s3.472 16.323 9.085 21.939v0zM132.872 559.74c5.615 5.613 13.371 9.085 21.938 9.085s16.323-3.472 21.939-9.085l51.541-51.541c5.389-5.574 8.711-13.178 8.711-21.557 0-17.138-13.893-31.030-31.030-31.030-8.379 0-15.983 3.321-21.566 8.719l0.009-0.008-29.603 29.603-29.603-29.603c-5.617-5.621-13.38-9.098-21.954-9.098-17.141 0-31.037 13.896-31.037 31.037 0 8.567 3.471 16.323 9.083 21.939l51.51 51.51zM405.659 526.414c-16.108-0.018-29.164-13.062-29.2-29.165v-0.003c0-17.437-14.136-31.573-31.573-31.573s-31.573 14.136-31.573 31.573v0c0 51.001 41.345 92.346 92.346 92.346s92.346-41.345 92.346-92.346v0c0-28.858-12.040-50.517-27.586-66.994-12.94-13.746-29.479-24.979-42.884-34.040l-4.034-2.793c-16.477-11.202-28.641-20.418-36.461-30.534h79.407c17.437 0 31.573-14.136 31.573-31.573s-14.136-31.573-31.573-31.573v0h-121.515c-0.009 0-0.020 0-0.031 0-17.429 0-31.558 14.129-31.558 31.558 0 0.011 0 0.022 0 0.033v-0.002c0 63.147 44.994 94.084 74.535 114.254l3.010 2.048c14.864 10.147 25.631 17.47 33.575 25.91 7.261 7.696 10.395 14.522 10.395 23.676-0.018 16.119-13.080 29.182-29.198 29.2h-0.002zM573.999 589.498c17.439 0 31.558-14.119 31.558-31.558v-82.106l83.347-0.869c17.291-0.193 31.234-14.255 31.234-31.573 0-17.438-14.137-31.575-31.575-31.575-0.12 0-0.24 0.001-0.36 0.002h0.018l-104.045 1.117c-23.121 0.332-41.736 19.153-41.736 42.321 0 0.001 0 0.003 0 0.004v0 102.71c0 17.408 14.119 31.527 31.558 31.527zM688.407 587.078c17.439 0 31.558-14.119 31.558-31.558v-224.256c0-17.437-14.136-31.573-31.573-31.573s-31.573 14.136-31.573 31.573v0 224.256c0 17.439 14.15 31.558 31.589 31.558zM171.473 558.344c13.9-3.272 24.088-15.568 24.088-30.244 0-2.458-0.286-4.848-0.826-7.141l0.042 0.21c-5.71-24.824-8.937-50.331-8.937-76.459 0-188.571 152.886-341.395 341.52-341.395h0.186c0.066 0 0.144 0 0.221 0 107.357 0 203.117 49.654 265.568 127.248l0.513 0.659c5.727 7.453 14.643 12.209 24.671 12.209 17.138 0 31.030-13.893 31.030-31.030 0-7.669-2.782-14.689-7.392-20.104l0.036 0.044c-73.914-91.974-187.268-151.118-314.647-151.118h-0.186c-222.891 0-403.58 180.627-403.58 403.487 0 31.279 3.879 61.44 10.519 90.36 3.283 13.885 15.572 24.058 30.237 24.058 2.46 0 4.853-0.286 7.148-0.827l-0.21 0.042zM527.515 785.951c-0.064 0-0.139 0-0.214 0-107.334 0-203.074-49.641-265.513-127.217l-0.513-0.658c-5.735-7.104-14.443-11.61-24.204-11.61-17.14 0-31.035 13.895-31.035 31.035 0 7.38 2.576 14.158 6.877 19.484l-0.046-0.059c74.421 92.437 187.573 151.087 314.422 151.087 0.079 0 0.159 0 0.238 0h-0.013c222.922 0 403.611-180.596 403.611-403.456 0-31.31-3.879-61.471-10.519-90.36-3.123-14.094-15.514-24.478-30.331-24.478-17.138 0-31.030 13.893-31.030 31.030 0 2.609 0.322 5.142 0.928 7.563l-0.045-0.214c5.71 24.824 8.937 50.331 8.937 76.459 0 188.54-152.886 341.395-341.52 341.395z" />
<glyph unicode="&#xe901;" glyph-name="accessibility" d="M301.428 563.526c4.225 12.452 15.809 21.252 29.449 21.252 3.496 0 6.856-0.578 9.991-1.644l-0.219 0.065c47.29-15.701 111.151-24.017 176.376-24.017s129.055 8.316 176.314 24.017c3.029 1.085 6.523 1.711 10.163 1.711 17.138 0 31.030-13.893 31.030-31.030 0-13.785-8.989-25.47-21.425-29.515l-0.22-0.062c-55.482-18.432-126.386-27.183-195.863-27.183-69.508 0-140.381 8.751-195.925 27.183-12.452 4.225-21.252 15.809-21.252 29.449 0 3.496 0.578 6.856 1.644 9.991l-0.065-0.219zM428.063 376.413c0 17.138 13.893 31.030 31.030 31.030v0h115.867c17.138 0 31.030-13.893 31.030-31.030s-13.893-31.030-31.030-31.030v0h-115.867c-17.138 0-31.030 13.893-31.030 31.030v0zM572.199 561.105c17.138 0 31.030-13.893 31.030-31.030v0-1.955c0-140.691 0.217-191.736 26.034-270.274 0.907-2.784 1.431-5.987 1.431-9.313 0-17.138-13.893-31.030-31.030-31.030-13.539 0-25.053 8.671-29.291 20.763l-0.066 0.218c-29.168 88.716-29.168 149.349-29.168 286.317v5.275c0 17.138 13.893 31.030 31.030 31.030v0zM461.886 561.105c17.138 0 31.030-13.893 31.030-31.030v0-5.275c0-136.968 0-197.601-29.168-286.317-4.084-12.693-15.788-21.717-29.6-21.717-17.138 0-31.030 13.893-31.030 31.030 0 3.598 0.612 7.054 1.739 10.267l-0.066-0.218c25.817 78.538 26.065 129.583 26.065 270.274v1.955c0 17.138 13.893 31.030 31.030 31.030v0zM758.381 696.398c-133.306 133.275-349.401 133.275-482.707 0-133.306-133.306-133.306-349.401 0-482.707s349.401-133.306 482.707 0c133.275 133.275 133.306 349.401 0 482.676zM802.257 740.274c157.541-157.541 157.541-412.951 0-570.461-157.51-157.541-412.92-157.541-570.461 0-157.541 157.51-157.541 412.92 0 570.461 157.541 157.51 412.951 157.51 570.461 0zM481.187 687.399c9.172 9.172 21.844 14.845 35.84 14.845 27.993 0 50.685-22.693 50.685-50.685 0-13.996-5.673-26.668-14.845-35.84v0c-9.172-9.172-21.844-14.845-35.84-14.845-27.993 0-50.685 22.693-50.685 50.685 0 13.996 5.673 26.668 14.845 35.84v0z" />
<glyph unicode="&#xe902;" glyph-name="add-item" d="M233.255 733.231c-26.025-0.018-47.117-21.11-47.135-47.133v-547.035c0-26.003 21.101-47.104 47.135-47.104h547.033c26.001 0.035 47.069 21.103 47.104 47.101v234.468c0 17.138 13.893 31.030 31.030 31.030s31.030-13.893 31.030-31.030v0-234.465c-0.035-60.276-48.889-109.129-109.161-109.165h-547.068c-60.283 0.018-109.147 48.882-109.165 109.163v547.035c0 60.307 48.889 109.196 109.196 109.196v0h234.465c17.138 0 31.030-13.893 31.030-31.030s-13.893-31.030-31.030-31.030v0h-234.465zM784.756 878.018c17.138 0 31.030-13.893 31.030-31.030v0-312.785c0.010-0.292 0.016-0.636 0.016-0.981 0-17.138-13.893-31.030-31.030-31.030s-31.030 13.893-31.030 31.030c0 0.345 0.006 0.689 0.017 1.031l-0.001-0.050v312.785c0 17.138 13.893 31.030 31.030 31.030v0zM597.364 690.626c0 17.138 13.893 31.030 31.030 31.030v0h312.785c17.138 0 31.030-13.893 31.030-31.030s-13.893-31.030-31.030-31.030v0h-312.816c-17.138 0-31.030 13.893-31.030 31.030v0z" />
<glyph unicode="&#xe903;" glyph-name="ads-advertisment-promotion" d="M227.545 774.594c-28.579 0-51.728-23.149-51.728-51.728v-579.212c0-28.579 23.149-51.728 51.728-51.728h579.212c28.579 0 51.728 23.149 51.728 51.728v579.212c0 28.579-23.149 51.728-51.728 51.728h-579.212zM113.757 722.866c0 0.009 0 0.020 0 0.031 0 62.826 50.931 113.757 113.757 113.757 0.011 0 0.022 0 0.033 0h579.21c0.009 0 0.020 0 0.031 0 62.826 0 113.757-50.931 113.757-113.757 0-0.011 0-0.022 0-0.033v0.002-579.212c0-62.826-50.931-113.757-113.757-113.757-0.011 0-0.022 0-0.033 0h-579.21c-0.009 0-0.020 0-0.031 0-62.826 0-113.757 50.931-113.757 113.757v0 579.212zM237.878 681.503c0 17.138 13.893 31.030 31.030 31.030v0h496.485c17.138 0 31.030-13.893 31.030-31.030v0-372.364c0-17.138-13.893-31.030-31.030-31.030v0h-496.485c-17.138 0-31.030 13.893-31.030 31.030v0 372.364zM299.939 650.473v-310.303h434.424v310.303h-434.424zM237.878 185.018c0 17.138 13.893 31.030 31.030 31.030v0h289.637c17.138 0 31.030-13.893 31.030-31.030s-13.893-31.030-31.030-31.030v0h-289.637c-17.138 0-31.030 13.893-31.030 31.030v0zM651.636 185.018c0 17.138 13.893 31.030 31.030 31.030v0h82.727c17.138 0 31.030-13.893 31.030-31.030s-13.893-31.030-31.030-31.030v0h-82.758c-17.138 0-31.030 13.893-31.030 31.030v0z" />
<glyph unicode="&#xe904;" glyph-name="alarm-clock-time-timer-add" d="M657.904 758.862c-174.111 72.114-373.76-10.581-445.843-184.692-72.083-174.080 10.581-373.698 184.692-445.843 38.386-16.377 83.044-25.898 129.925-25.898 27.116 0 53.487 3.185 78.762 9.201l-2.304-0.463c2.084 0.499 4.476 0.785 6.935 0.785 17.143 0 31.039-13.897 31.039-31.039 0-14.683-10.196-26.985-23.894-30.213l-0.21-0.042c-27.116-6.541-58.248-10.292-90.256-10.292-55.474 0-108.316 11.267-156.363 31.637l2.628-0.989c-205.793 85.24-303.507 321.133-218.298 526.864 85.209 205.793 321.164 303.476 526.926 218.298 184.568-76.459 281.693-273.998 238.468-462.289-3.269-13.908-15.571-24.104-30.255-24.104-17.143 0-31.039 13.897-31.039 31.039 0 2.459 0.286 4.852 0.827 7.146l-0.042-0.21c36.616 159.403-45.677 326.439-201.697 391.075zM713.511 143.593c0 17.138 13.893 31.030 31.030 31.030v0h165.485c17.138 0 31.030-13.893 31.030-31.030s-13.893-31.030-31.030-31.030v0h-165.485c-17.138 0-31.030 13.893-31.030 31.030v0zM827.268 257.381c17.138 0 31.030-13.893 31.030-31.030v0-165.485c0-17.138-13.893-31.030-31.030-31.030s-31.030 13.893-31.030 31.030v0 165.485c0 17.138 13.893 31.030 31.030 31.030v0zM515.662 640.698c17.138 0 31.030-13.893 31.030-31.030v0-175.011l136.378-83.161c8.609-5.61 14.221-15.191 14.221-26.083 0-17.138-13.893-31.030-31.030-31.030-5.704 0-11.048 1.539-15.64 4.224l0.147-0.079-151.273 92.222c-8.99 5.54-14.893 15.331-14.895 26.5v0 192.419c0 17.138 13.893 31.030 31.030 31.030v0z" />
<glyph unicode="&#xe905;" glyph-name="alarm-clock-time-timer-fast" d="M403.239 857.29c0 17.138 13.893 31.030 31.030 31.030v0h165.516c17.138 0 31.030-13.893 31.030-31.030s-13.893-31.030-31.030-31.030v0h-165.516c-17.138 0-31.030 13.893-31.030 31.030v0zM370.967 548.228c5.615 5.613 13.371 9.085 21.938 9.085s16.323-3.472 21.939-9.085l124.121-124.090c5.389-5.574 8.711-13.178 8.711-21.557 0-17.138-13.893-31.030-31.030-31.030-8.379 0-15.983 3.321-21.566 8.719l0.009-0.008-124.121 124.121c-5.613 5.615-9.085 13.371-9.085 21.938s3.472 16.323 9.085 21.939v0zM869.935 755.107c5.613-5.615 9.085-13.371 9.085-21.938s-3.472-16.323-9.085-21.939l-96.814-96.814c-5.616-5.612-13.372-9.083-21.938-9.083-17.141 0-31.037 13.896-31.037 31.037 0 8.574 3.477 16.337 9.098 21.954l96.815 96.815c5.615 5.613 13.371 9.085 21.938 9.085s16.323-3.472 21.939-9.085v0zM784.694 796.47c5.615 5.613 13.371 9.085 21.938 9.085s16.323-3.472 21.939-9.085l82.758-82.727c5.389-5.574 8.711-13.178 8.711-21.557 0-17.138-13.893-31.030-31.030-31.030-8.379 0-15.983 3.321-21.566 8.719l0.009-0.008-82.758 82.727c-5.623 5.617-9.101 13.379-9.101 21.954s3.478 16.337 9.1 21.954v0zM113.633 319.441c0 17.138 13.893 31.030 31.030 31.030v0h206.879c17.138 0 31.030-13.893 31.030-31.030s-13.893-31.030-31.030-31.030v0h-206.879c-17.138 0-31.030 13.893-31.030 31.030v0zM196.391 195.32c0 17.138 13.893 31.030 31.030 31.030v0h124.121c17.138 0 31.030-13.893 31.030-31.030s-13.893-31.030-31.030-31.030v0h-124.121c-17.138 0-31.030 13.893-31.030 31.030v0zM279.118 71.23c0 17.138 13.893 31.030 31.030 31.030v0h41.394c17.138 0 31.030-13.893 31.030-31.030s-13.893-31.030-31.030-31.030v0h-41.394c-17.138 0-31.030 13.893-31.030 31.030v0zM517.027 702.138c-139.574 0-256.528-95.573-289.823-224.939-3.563-13.508-15.672-23.307-30.068-23.307-17.148 0-31.049 13.901-31.049 31.049 0 2.751 0.358 5.419 1.029 7.959l-0.049-0.217c40.184 155.958 181.217 271.515 349.96 271.515 199.928 0 362-162.071 362-362s-162.071-362-362-362c-17.138 0-31.030 13.893-31.030 31.030s13.893 31.030 31.030 31.030v0c165.64 0 299.939 134.299 299.939 299.939s-134.299 299.939-299.939 299.939z" />
<glyph unicode="&#xe906;" glyph-name="alarm-clock-time-timer" d="M637.176 128.295c-174.080-72.114-373.698 10.581-445.843 184.692-72.083 174.111 10.581 373.698 184.692 445.843 174.111 72.114 373.698-10.55 445.843-184.692 72.145-174.080-10.55-373.698-184.692-445.843zM352.287 816.175c-205.762-85.271-303.476-321.164-218.267-526.926 85.24-205.762 321.133-303.538 526.895-218.298 205.793 85.271 303.538 321.164 218.298 526.926-85.24 205.793-321.164 303.538-526.926 218.298zM525.964 609.668c0 17.138-13.893 31.030-31.030 31.030s-31.030-13.893-31.030-31.030v0-192.388c0-0.008 0-0.017 0-0.026 0-11.171 5.903-20.964 14.761-26.428l0.134-0.077 151.242-92.222c4.6-2.847 10.179-4.534 16.151-4.534 17.14 0 31.034 13.894 31.034 31.034 0 11.167-5.898 20.957-14.749 26.423l-0.134 0.077-136.378 83.161v175.011z" />
<glyph unicode="&#xe907;" glyph-name="alarm-clock-time-warning" d="M506.756 702.231c-165.702 0-300.032-134.361-300.032-300.032 0-165.702 134.361-300.001 300.063-300.001 165.673 0.018 299.97 134.326 299.97 300.001v0c0 165.733-134.299 300.063-300.001 300.063zM506.756 40.138c-199.959 0-362.093 162.102-362.093 362.062s162.102 362.124 362.124 362.124c199.928 0 362.031-162.133 362.031-362.124 0-199.959-162.102-362.062-362.062-362.062zM506.756 598.776c17.138 0 31.030-13.893 31.030-31.030v0-183.948c0-17.138-13.893-31.030-31.030-31.030s-31.030 13.893-31.030 31.030v0 183.948c0 17.138 13.893 31.030 31.030 31.030v0zM300.87 823.87c4.519-5.355 7.266-12.333 7.266-19.953 0-9.52-4.287-18.039-11.036-23.731l-0.046-0.038-124.121-104.262c-5.355-4.518-12.333-7.264-19.952-7.264-17.139 0-31.033 13.894-31.033 31.033 0 9.52 4.286 18.038 11.035 23.731l0.046 0.038 124.121 104.262c5.355 4.519 12.333 7.266 19.953 7.266 9.52 0 18.039-4.287 23.731-11.036l0.038-0.046zM712.983 823.467c5.731 6.804 14.255 11.098 23.782 11.098 7.628 0 14.614-2.753 20.017-7.319l-0.046 0.038 124.121-104.262c6.784-5.73 11.064-14.242 11.064-23.754 0-17.138-13.893-31.032-31.032-31.032-7.627 0-14.611 2.751-20.014 7.316l0.046-0.038-124.121 104.262c-6.795 5.73-11.082 14.249-11.082 23.769 0 7.62 2.747 14.598 7.304 19.999l-0.038-0.046zM469.52 245.713c-0.024 0.498-0.037 1.081-0.037 1.667 0 20.565 16.671 37.236 37.236 37.236s37.236-16.671 37.236-37.236c0-0.477-0.009-0.952-0.027-1.425l0.002 0.068c-0.751-19.973-17.124-35.88-37.212-35.88-19.979 0-36.283 15.734-37.196 35.487l-0.003 0.082z" />
<glyph unicode="&#xe908;" glyph-name="alarm-clock-time" d="M402.184 679.238c153.041 63.364 328.456-9.309 391.82-162.32 63.395-153.041-9.278-328.487-162.288-391.851-153.041-63.395-328.487 9.278-391.851 162.288-63.426 153.041 9.247 328.487 162.288 391.882zM378.415 736.551c-184.692-76.49-272.415-288.24-195.956-472.933 76.521-184.692 288.272-272.415 472.964-195.925v0c184.692 76.521 272.415 288.272 195.894 472.964-76.49 184.692-288.24 272.415-472.933 195.894zM311.017 823.87l-0.038 0.046c-5.692 6.749-14.211 11.036-23.731 11.036-7.62 0-14.598-2.747-19.953-7.266l-124.167-104.3c-6.748-5.693-11.035-14.211-11.035-23.731 0-17.139 13.894-31.033 31.033-31.033 7.62 0 14.598 2.746 19.952 7.264l124.168 104.3c6.759 5.692 11.054 14.217 11.054 23.746 0 7.613-2.742 14.585-7.253 19.938zM723.192 823.467l0.038 0.046c-4.565-5.403-7.316-12.387-7.316-20.014 0-9.512 4.279-18.024 11.064-23.754l124.075-104.224c5.403-4.564 12.387-7.316 20.014-7.316 17.138 0 31.032 13.893 31.032 31.032 0 9.511-4.279 18.024-11.064 23.754l-124.075 104.224c-5.403 4.565-12.387 7.316-20.014 7.316-9.512 0-18.024-4.279-23.754-11.064zM506.57 580.81c17.138 0 31.030-13.893 31.030-31.030v0-153.631l119.591-72.921c8.98-5.546 14.875-15.335 14.875-26.5 0-17.144-13.898-31.042-31.042-31.042-5.979 0-11.563 1.69-16.3 4.619l0.133-0.077-134.454 82.013c-8.99 5.54-14.893 15.331-14.895 26.5v0 171.039c0 17.138 13.893 31.030 31.030 31.030v0z" />
<glyph unicode="&#xe909;" glyph-name="alarm-clock" d="M742.741 193.707c5.615 5.613 13.371 9.085 21.938 9.085s16.323-3.472 21.939-9.085l93.494-93.494c5.621-5.617 9.098-13.38 9.098-21.954 0-17.141-13.896-31.037-31.037-31.037-8.567 0-16.323 3.471-21.939 9.083v0l-93.494 93.525c-5.613 5.615-9.085 13.371-9.085 21.938s3.472 16.323 9.085 21.939v0zM311.668 193.707c5.613-5.615 9.085-13.371 9.085-21.938s-3.472-16.323-9.085-21.939l-93.494-93.494c-5.574-5.389-13.178-8.711-21.557-8.711-17.138 0-31.030 13.893-31.030 31.030 0 8.379 3.321 15.983 8.719 21.566l-0.008-0.009 93.494 93.494c5.615 5.613 13.371 9.085 21.938 9.085s16.323-3.472 21.939-9.085v0zM412.455 679.238c33.922 14.446 73.383 22.844 114.805 22.844 124.224 0 230.807-75.526 276.337-183.164l0.739-1.968-391.913 162.288zM388.686 736.582c184.723 76.521 396.474-11.171 472.964-195.894 76.521-184.723-11.202-396.474-195.894-472.933-184.692-76.521-396.443 11.233-472.902 195.894zM412.455 679.238c-153.010-63.364-225.683-238.84-162.288-391.851 63.364-152.979 238.809-225.714 391.851-162.288 153.010 63.364 225.714 238.778 162.288 391.82zM388.717 736.582c-184.692-76.49-272.353-288.272-195.863-472.933l195.832 472.902zM516.872 580.872c17.138 0 31.030-13.893 31.030-31.030v0-153.662l119.591-72.921c8.98-5.546 14.875-15.335 14.875-26.5 0-17.144-13.898-31.042-31.042-31.042-5.979 0-11.563 1.69-16.3 4.619l0.133-0.077-134.454 82.013c-8.99 5.54-14.893 15.331-14.895 26.5v0 171.070c0 17.138 13.893 31.030 31.030 31.030v0zM175.849 797.029c47.476 47.476 114.626 61.533 174.235 44.622 13.206-3.761 22.714-15.718 22.714-29.895 0-17.138-13.893-31.030-31.030-31.030-3.073 0-6.043 0.447-8.846 1.279l0.22-0.056c-39.408 11.171-82.913 1.707-113.385-28.796zM219.757 753.152c-26.252-26.283-36.926-62.216-32.272-97.063 0.171-1.226 0.269-2.642 0.269-4.080 0-17.141-13.895-31.036-31.036-31.036-15.702 0-28.68 11.66-30.749 26.794l-0.018 0.161c-6.982 52.658 9.030 108.203 49.897 149.101zM835.181 753.152c-30.503 30.503-73.945 39.998-113.354 28.796-2.543-0.751-5.464-1.183-8.487-1.183-17.14 0-31.034 13.894-31.034 31.034 0 14.117 9.426 26.033 22.328 29.796l0.219 0.055c59.64 16.943 126.759 2.824 174.204-44.622 40.898-40.898 56.91-96.504 49.959-149.070-2.079-15.301-15.060-26.969-30.767-26.969-17.14 0-31.034 13.894-31.034 31.034 0 1.433 0.097 2.844 0.285 4.226l-0.018-0.161c4.624 34.847-6.020 70.78-32.303 97.063z" />
<glyph unicode="&#xe90a;" glyph-name="arrow-down" d="M527.856 784.493c17.138 0 31.030-13.893 31.030-31.030v0-619.799c0-17.138-13.893-31.030-31.030-31.030s-31.030 13.893-31.030 31.030v0 619.799c0 17.138 13.893 31.030 31.030 31.030v0zM258.234 403.161c5.615 5.613 13.371 9.085 21.938 9.085s16.323-3.472 21.939-9.085l225.342-225.28 225.342 225.28c5.574 5.389 13.178 8.711 21.557 8.711 17.138 0 31.030-13.893 31.030-31.030 0-8.379-3.321-15.983-8.719-21.566l0.008 0.009-247.312-247.249c-5.613-5.604-13.363-9.070-21.923-9.070s-16.309 3.466-21.923 9.070v0l-247.312 247.249c-5.613 5.615-9.085 13.371-9.085 21.938s3.472 16.323 9.085 21.939v0z" />
<glyph unicode="&#xe90b;" glyph-name="arrow-left" d="M155.555 444.4c0 17.138 13.893 31.030 31.030 31.030v0h620.172c17.138 0 31.030-13.893 31.030-31.030s-13.893-31.030-31.030-31.030v0h-620.172c-17.138 0-31.030 13.893-31.030 31.030v0zM456.89 714.24c5.613-5.615 9.085-13.371 9.085-21.938s-3.472-16.323-9.085-21.939l-226.769-226.769 226.769-226.832c5.38-5.573 8.696-13.17 8.696-21.542 0-17.138-13.893-31.030-31.030-31.030-8.387 0-15.997 3.327-21.582 8.734l-248.638 248.7c-5.623 5.617-9.101 13.379-9.101 21.954s3.478 16.337 9.1 21.954v0l248.677 248.708c5.617 5.623 13.379 9.101 21.954 9.101s16.337-3.478 21.954-9.1v0z" />
<glyph unicode="&#xe90c;" glyph-name="arrow-location-direction" d="M777.464 810.527c66.436 24.576 131.103-40.091 106.527-106.527l-206.848-557.925c-28.331-76.397-138.333-70.377-158.099 8.688l-58.182 232.169-232.976 58.523c-78.941 19.859-85.023 129.769-8.595 158.068l558.173 206.972zM618.961 167.641l206.817 557.925c0.807 2.134 1.275 4.602 1.275 7.179 0 11.516-9.336 20.852-20.852 20.852-2.585 0-5.061-0.47-7.345-1.33l0.144 0.047-558.142-206.972c-19.177-7.106-17.687-34.723 2.172-39.719l250.973-63.023c11.12-2.853 19.706-11.439 22.512-22.344l0.047-0.215 62.681-250.228c4.965-19.828 32.582-21.411 39.719-2.172z" />
<glyph unicode="&#xe90d;" glyph-name="arrow-right" d="M837.198 453.058c0-17.138-13.893-31.030-31.030-31.030v0h-620.172c-17.138 0-31.030 13.893-31.030 31.030s13.893 31.030 31.030 31.030v0h620.172c17.138 0 31.030-13.893 31.030-31.030v0zM535.893 183.187c-5.623 5.617-9.101 13.379-9.101 21.954s3.478 16.337 9.1 21.954v0l226.738 226.769-226.738 226.863c-5.38 5.573-8.696 13.17-8.696 21.542 0 17.138 13.893 31.030 31.030 31.030 8.387 0 15.997-3.327 21.582-8.734l248.669-248.7c5.613-5.615 9.085-13.371 9.085-21.938s-3.472-16.323-9.085-21.939l-248.677-248.739c-5.615-5.613-13.371-9.085-21.938-9.085s-16.323 3.472-21.939 9.085v0z" />
<glyph unicode="&#xe90e;" glyph-name="arrow-up" d="M507.035 794.764c17.138 0 31.030-13.893 31.030-31.030v0-620.141c0-17.138-13.893-31.030-31.030-31.030s-31.030 13.893-31.030 31.030v0 620.141c0 17.138 13.893 31.030 31.030 31.030v0zM506.601 795.26c0.007 0 0.016 0 0.025 0 8.601 0 16.385-3.5 22.005-9.152l247.251-248.864c5.804-5.645 9.405-13.529 9.405-22.254 0-17.138-13.893-31.030-31.030-31.030-8.787 0-16.72 3.652-22.366 9.521l-0.010 0.010-225.28 226.738-225.28-226.738c-5.623-5.658-13.411-9.16-22.016-9.16-17.141 0-31.037 13.896-31.037 31.037 0 8.536 3.446 16.267 9.022 21.878l247.31 248.861c5.62 5.653 13.402 9.152 22 9.154v0z" />
<glyph unicode="&#xe90f;" glyph-name="arrows-circle" d="M768.683 695.218c-133.306 133.306-349.401 133.306-482.707 0s-133.306-349.401 0-482.707c133.275-133.306 349.401-133.306 482.707 0 133.275 133.306 133.275 349.401 0 482.707zM812.56 739.095c157.541-157.51 157.541-412.92 0-570.461s-412.951-157.541-570.461 0c-157.541 157.541-157.541 412.951 0 570.461 157.51 157.541 412.92 157.541 570.461 0zM546.754 393.076c5.615 5.613 13.371 9.085 21.938 9.085s16.323-3.472 21.939-9.085l60.819-60.819 60.819 60.819c5.535 5.2 13.007 8.395 21.226 8.395 17.138 0 31.030-13.893 31.030-31.030 0-8.226-3.201-15.705-8.425-21.258l0.015 0.016-82.727-82.758c-5.615-5.613-13.371-9.085-21.938-9.085s-16.323 3.472-21.939 9.085l-82.758 82.758c-5.613 5.615-9.085 13.371-9.085 21.938s3.472 16.323 9.085 21.939v0zM651.45 650.38c17.138 0 31.030-13.893 31.030-31.030v0-330.969c0-17.138-13.893-31.030-31.030-31.030s-31.030 13.893-31.030 31.030v0 330.969c0 17.138 13.893 31.030 31.030 31.030v0zM381.269 641.319c5.615 5.613 13.371 9.085 21.938 9.085s16.323-3.472 21.939-9.085l82.758-82.758c5.389-5.574 8.711-13.178 8.711-21.557 0-17.138-13.893-31.030-31.030-31.030-8.379 0-15.983 3.321-21.566 8.719l0.009-0.008-60.819 60.819-60.819-60.819c-5.574-5.389-13.178-8.711-21.557-8.711-17.138 0-31.030 13.893-31.030 31.030 0 8.379 3.321 15.983 8.719 21.566l-0.008-0.009 82.758 82.758zM403.208 650.38c17.138 0 31.030-13.893 31.030-31.030v0-330.969c0-17.138-13.893-31.030-31.030-31.030s-31.030 13.893-31.030 31.030v0 330.969c0 17.138 13.893 31.030 31.030 31.030v0z" />
<glyph unicode="&#xe910;" glyph-name="arrows-round" d="M758.381 695.218c-133.306 133.306-349.401 133.306-482.707 0s-133.306-349.401 0-482.707c133.306-133.306 349.401-133.306 482.707 0 133.275 133.306 133.275 349.401 0 482.707zM802.257 739.095c157.541-157.51 157.541-412.92 0-570.461s-412.951-157.541-570.461 0c-157.541 157.541-157.541 412.951 0 570.461 157.51 157.541 412.92 157.541 570.461 0zM320.512 578.017c0 17.138 13.893 31.030 31.030 31.030v0h330.969c17.138 0 31.030-13.893 31.030-31.030s-13.893-31.030-31.030-31.030v0h-330.938c-17.138 0-31.030 13.893-31.030 31.030v0zM456.239 434.44c5.613-5.615 9.085-13.371 9.085-21.938s-3.472-16.323-9.085-21.939l-60.819-60.819 60.819-60.819c5.38-5.573 8.696-13.17 8.696-21.542 0-17.138-13.893-31.030-31.030-31.030-8.387 0-15.997 3.327-21.582 8.734l-82.719 82.719c-5.623 5.617-9.101 13.379-9.101 21.954s3.478 16.337 9.1 21.954v0l82.727 82.727c5.617 5.623 13.379 9.101 21.954 9.101s16.337-3.478 21.954-9.1v0zM320.512 329.775c0 17.138 13.893 31.030 31.030 31.030v0h330.969c17.138 0 31.030-13.893 31.030-31.030s-13.893-31.030-31.030-31.030v0h-330.938c-17.138 0-31.030 13.893-31.030 31.030v0zM577.846 682.682c5.615 5.613 13.371 9.085 21.938 9.085s16.323-3.472 21.939-9.085l82.727-82.758c5.613-5.615 9.085-13.371 9.085-21.938s-3.472-16.323-9.085-21.939l-82.727-82.727c-5.617-5.621-13.38-9.098-21.954-9.098-17.141 0-31.037 13.896-31.037 31.037 0 8.567 3.471 16.323 9.083 21.939l60.819 60.819-60.819 60.788c-5.613 5.615-9.085 13.371-9.085 21.938s3.472 16.323 9.085 21.939v0z" />
<glyph unicode="&#xe911;" glyph-name="attachment-link-circle-1" d="M472.157 628.658c26.172 23.695 61.054 38.196 99.322 38.196 81.866 0 148.232-66.366 148.232-148.232 0-38.817-14.92-74.149-39.338-100.574l0.091 0.1-27.617-27.617c-5.616-5.612-13.372-9.083-21.938-9.083-17.141 0-31.037 13.896-31.037 31.037 0 8.574 3.477 16.337 9.098 21.954v0l27.058 26.996c13.663 15.186 22.019 35.383 22.019 57.532 0 47.591-38.58 86.171-86.171 86.171-22.157 0-42.36-8.362-57.627-22.103l0.078 0.069-27.058-26.996c-5.649-5.835-13.554-9.457-22.304-9.457-17.138 0-31.030 13.893-31.030 31.030 0 8.766 3.635 16.683 9.48 22.326l27.626 27.626c0.35 0.329 0.724 0.664 1.106 0.989l0.042 0.035zM404.511 517.198c5.613-5.615 9.085-13.371 9.085-21.938 0-8.583-3.484-16.351-9.116-21.969l-27.059-26.997c-13.579-15.165-21.88-35.301-21.88-57.377 0-47.591 38.58-86.171 86.171-86.171 22.091 0 42.24 8.313 57.491 21.981l-0.081-0.072 27.058 26.996c5.573 5.38 13.17 8.696 21.542 8.696 17.138 0 31.030-13.893 31.030-31.030 0-8.387-3.327-15.997-8.734-21.582l-27.609-27.609c-26.267-24.082-61.425-38.839-100.029-38.839-81.866 0-148.232 66.366-148.232 148.232 0 38.62 14.769 73.79 38.967 100.171l-0.099-0.109 27.617 27.617c5.615 5.613 13.371 9.085 21.938 9.085s16.323-3.472 21.939-9.085v0zM103.176 453.896c0 222.86 180.689 403.518 403.549 403.518s403.549-180.658 403.549-403.549c0-222.86-180.689-403.518-403.549-403.518s-403.549 180.658-403.549 403.518zM506.725 795.322c-188.602 0-341.488-152.886-341.488-341.488 0-188.571 152.886-341.457 341.488-341.457s341.488 152.886 341.488 341.457c0 188.602-152.886 341.488-341.488 341.488zM597.706 544.846c5.613-5.615 9.085-13.371 9.085-21.938s-3.472-16.323-9.085-21.939l-138.085-138.085c-5.616-5.612-13.372-9.083-21.938-9.083-17.141 0-31.037 13.896-31.037 31.037 0 8.574 3.477 16.337 9.098 21.954l138.085 138.085c5.615 5.613 13.371 9.085 21.938 9.085s16.323-3.472 21.939-9.085v0z" />
<glyph unicode="&#xe912;" glyph-name="award-rating" d="M681.053 731.586c-39.308 39.312-93.615 63.628-153.6 63.628s-114.292-24.315-153.6-63.628v0 0c-39.312-39.308-63.628-93.615-63.628-153.6 0-119.963 97.249-217.212 217.212-217.212s217.212 97.249 217.212 217.212c0 59.97-24.303 114.264-63.597 153.569l0.001-0.001zM724.93 775.463c-50.538 50.539-120.357 81.798-197.477 81.798s-146.938-31.259-197.477-81.798v0h394.954zM724.93 775.463c50.538-50.538 81.796-120.356 81.796-197.474 0-154.238-125.035-279.273-279.273-279.273s-279.273 125.035-279.273 279.273c0 77.119 31.258 146.936 81.796 197.475v0zM361.968 424.386c17.138 0 31.030-13.893 31.030-31.030v0-261.616l120.584 60.292c4.041 2.064 8.815 3.273 13.871 3.273s9.829-1.209 14.047-3.354l-0.176 0.081 120.584-60.292v261.585c0 17.138 13.893 31.030 31.030 31.030s31.030-13.893 31.030-31.030v0-311.792c0-0.004 0-0.009 0-0.014 0-17.138-13.893-31.030-31.030-31.030-5.056 0-9.829 1.209-14.047 3.354l0.176-0.081-151.614 75.807-151.614-75.807c-4.041-2.064-8.815-3.273-13.871-3.273-17.138 0-31.030 13.893-31.030 31.030 0 0.005 0 0.010 0 0.015v-0.001 311.824c0 17.138 13.893 31.030 31.030 31.030v0z" />
<glyph unicode="&#xe913;" glyph-name="bag-gift-package-pack" d="M206.507 61.611h165.485c17.138 0 31.030-13.893 31.030-31.030s-13.893-31.030-31.030-31.030v0h-165.485c-0.091 0-0.2 0-0.308 0-62.586 0-113.323 50.736-113.323 113.323 0 2.785 0.1 5.546 0.298 8.28l-0.021-0.367 32.675 493.568c2.671 37.937 34.031 67.719 72.379 67.863h95.587v10.302c0 85.688 69.464 155.152 155.152 155.152s155.152-69.464 155.152-155.152v0-10.333h97.218c38.277-0.143 69.542-29.969 71.979-67.65l0.011-0.214 4.561-85.209c0.066-0.756 0.104-1.635 0.104-2.523 0-16.362-12.831-29.727-28.979-30.583l-0.076-0.003c-0.529-0.032-1.147-0.050-1.77-0.050-16.504 0-30.038 12.72-31.332 28.891l-0.007 0.111-5.368 85.24c-0.239 5.534-4.784 9.93-10.355 9.93-0.003 0-0.006 0-0.010 0h-95.976v-51.728c0-17.138-13.893-31.030-31.030-31.030s-31.030 13.893-31.030 31.030v0 51.728h-186.182v-51.728c0-17.138-13.893-31.030-31.030-31.030s-31.030 13.893-31.030 31.030v0 51.728h-95.573c-5.562-0.012-10.094-4.403-10.332-9.908l-0.001-0.022-33.109-493.537c-0.061-0.947-0.096-2.053-0.096-3.167 0-13.848 5.399-26.435 14.208-35.77l-0.024 0.025c9.446-9.947 22.769-16.136 37.536-16.136 0.036 0 0.073 0 0.109 0h-0.006zM383.131 758.365c-16.84-16.835-27.261-40.091-27.276-65.781v-10.367h186.182v10.302c-0.011 51.404-41.685 93.071-93.091 93.071-25.701 0-48.97-10.416-65.815-27.256v0zM823.761 294.152h3.351c39.986-0.018 72.394-32.437 72.394-72.425v0-149.752c0-0.009 0-0.020 0-0.031 0-39.982-32.412-72.394-72.394-72.394h-277.628c-39.982 0-72.394 32.412-72.394 72.394 0 0.011 0 0.022 0 0.033v-0.002 149.752c0 0.009 0 0.020 0 0.031 0 39.982 32.412 72.394 72.394 72.394h3.32c-8.876 14.039-14.143 31.126-14.143 49.443 0 24.548 9.46 46.886 24.934 63.567l-0.055-0.060c15.641 16.562 37.751 26.873 62.269 26.873 0.079 0 0.159 0 0.238 0h-0.012c0.015 0 0.034 0 0.052 0 24.689 0 46.971-10.301 62.785-26.84l0.031-0.033c15.881 15.886 37.823 25.712 62.061 25.712s46.179-9.826 62.060-25.712v0c15.49-16.581 25.001-38.92 25.001-63.479 0-18.338-5.303-35.438-14.458-49.85l0.225 0.379zM760.242 369.773c-2.844 1.298-6.16 2.090-9.652 2.172l-0.030 0.001c-7.119-0.382-13.404-3.656-17.754-8.658l-0.026-0.031c-9.282-15.612-14.769-34.421-14.769-54.512 0-4.267 0.247-8.476 0.729-12.613l-0.048 0.503c19.423 4.213 36.265 13.379 49.695 26.109l-0.047-0.044c5.076 5.389 8.196 12.671 8.196 20.682s-3.12 15.292-8.21 20.697l0.014-0.015c-2.248 2.369-4.937 4.294-7.94 5.646l-0.159 0.064zM614.865 369.835c-3.097-1.416-5.72-3.363-7.862-5.75l-0.019-0.022h0.838c-5.281-5.312-8.546-12.633-8.546-20.717 0-7.657 2.929-14.631 7.727-19.861l-0.020 0.022c13.777-13.188 30.999-22.218 49.648-26.065 0.396 3.473 0.622 7.499 0.622 11.577 0 20.308-5.606 39.307-15.355 55.533l0.272-0.488c-4.447 4.804-10.774 7.813-17.804 7.851h-0.007c-3.446-0.027-6.706-0.79-9.642-2.139l0.147 0.060zM834.405 64.652c1.876 1.874 3.038 4.462 3.041 7.323v149.753c0 0.009 0 0.020 0 0.031 0 5.707-4.626 10.333-10.333 10.333 0 0 0 0 0 0h-279.273c-0.009 0-0.020 0-0.031 0-5.707 0-10.333-4.626-10.333-10.333 0-0.011 0-0.022 0-0.033v0.002-149.752c0-5.724 4.64-10.364 10.364-10.364v0h279.273c2.85 0.008 5.427 1.169 7.292 3.041v0z" />
<glyph unicode="&#xe914;" glyph-name="bag-shopping-circle" d="M527.329 775.494c-188.602 0-341.488-152.886-341.488-341.488s152.886-341.488 341.488-341.488c188.602 0 341.488 152.886 341.488 341.488s-152.886 341.488-341.488 341.488zM123.78 434.005c0 222.86 180.689 403.549 403.549 403.549s403.549-180.72 403.549-403.549-180.689-403.549-403.549-403.549-403.549 180.689-403.549 403.58zM527.329 620.28c-0.009 0-0.020 0-0.031 0-18.851 0-34.133-15.282-34.133-34.133v0c0-17.138-13.893-31.030-31.030-31.030s-31.030 13.893-31.030 31.030v0c0 53.144 43.081 96.225 96.225 96.225s96.225-43.081 96.225-96.225v0c0-17.138-13.893-31.030-31.030-31.030s-31.030 13.893-31.030 31.030v0c0 18.851-15.282 34.133-34.133 34.133-0.011 0-0.022 0-0.033 0h0.002zM330.752 507.33c0 39.502 32.023 71.525 71.525 71.525v0h250.104c39.502 0 71.525-32.023 71.525-71.525v0-208.71c0-39.502-32.023-71.525-71.525-71.525v0h-250.104c-39.502 0-71.525 32.023-71.525 71.525v0 208.71zM402.277 516.825c0 0 0 0 0 0-5.227 0-9.464-4.237-9.464-9.464 0-0.011 0-0.022 0-0.033v0.002-208.71c0-5.244 4.22-9.464 9.464-9.464h250.104c5.227 0 9.464 4.237 9.464 9.464v0 208.71c0 0.009 0 0.020 0 0.031 0 5.227-4.237 9.464-9.464 9.464 0 0 0 0 0 0h-250.104zM592.524 617.146c17.138 0 31.030-13.893 31.030-31.030v0-38.291c0-17.138-13.893-31.030-31.030-31.030s-31.030 13.893-31.030 31.030v0 38.291c0 17.138 13.893 31.030 31.030 31.030v0zM462.134 617.146c17.138 0 31.030-13.893 31.030-31.030v0-38.291c0-17.138-13.893-31.030-31.030-31.030s-31.030 13.893-31.030 31.030v0 38.291c0 17.138 13.893 31.030 31.030 31.030v0z" />
<glyph unicode="&#xe915;" glyph-name="bag-shopping-refresh" d="M60.664 424.913c5.615 5.613 13.371 9.085 21.938 9.085s16.323-3.472 21.939-9.085l40.122-40.122 40.122 40.122c5.616 5.612 13.372 9.083 21.938 9.083 17.141 0 31.037-13.896 31.037-31.037 0-8.574-3.477-16.337-9.098-21.954l-62.061-62.061c-5.615-5.613-13.371-9.085-21.938-9.085s-16.323 3.472-21.939 9.085l-62.061 62.061c-5.623 5.617-9.101 13.379-9.101 21.954s3.478 16.337 9.1 21.954v0zM867.421 549.035c5.617 5.623 13.379 9.101 21.954 9.101s16.337-3.478 21.954-9.1v0l62.061-62.061c5.612-5.616 9.083-13.372 9.083-21.938 0-17.141-13.896-31.037-31.037-31.037-8.574 0-16.337 3.477-21.954 9.098v0l-40.122 40.091-40.091-40.091c-5.617-5.621-13.38-9.098-21.954-9.098-17.141 0-31.037 13.896-31.037 31.037 0 8.567 3.471 16.323 9.083 21.939l62.060 62.060zM113.633 434.005c0 222.798 180.596 403.394 403.394 403.394 136.844 0 257.52-68.329 330.349-172.342 3.714-5.053 5.943-11.397 5.943-18.262 0-17.138-13.893-31.030-31.030-31.030-10.673 0-20.087 5.388-25.671 13.593l-0.069 0.108c-61.75 88.219-163.84 145.842-279.521 145.842-188.54 0-341.333-152.793-341.333-341.333 0-26.096 3.227-51.572 8.937-76.397 0.501-2.088 0.788-4.486 0.788-6.951 0-17.144-13.898-31.043-31.043-31.043-14.68 0-26.979 10.189-30.213 23.881l-0.042 0.211c-6.587 27.1-10.406 58.232-10.488 90.243v0.055zM872.696 547.607c2.091 0.502 4.492 0.791 6.96 0.791 14.678 0 26.976-10.191 30.203-23.884l0.042-0.21c6.609-28.858 10.488-59.020 10.488-90.298 0-222.798-180.596-403.394-403.394-403.394-136.844 0-257.489 68.267-330.349 172.311-3.313 4.862-5.29 10.865-5.29 17.329 0 17.138 13.893 31.030 31.030 31.030 10.272 0 19.379-4.992 25.027-12.682l0.061-0.086c61.75-88.188 163.84-145.842 279.552-145.842 188.509 0 341.333 152.793 341.333 341.333 0 26.128-3.258 51.572-8.968 76.397-0.502 2.091-0.791 4.492-0.791 6.96 0 14.678 10.191 26.976 23.884 30.203l0.21 0.042zM415.403 586.457c0 56.599 43.877 106.124 101.624 106.124 57.716 0 101.593-49.524 101.593-106.124v-32.116c0-17.138-13.893-31.030-31.030-31.030s-31.030 13.893-31.030 31.030v0 32.116c0 26.003-19.642 44.063-39.533 44.063s-39.564-18.060-39.564-44.063v-32.116c0-17.138-13.893-31.030-31.030-31.030s-31.030 13.893-31.030 31.030v0 32.116zM340.123 524.986c3.354 34.038 31.83 60.412 66.467 60.416h220.843c34.444 0 63.209-26.128 66.529-60.354v-0.062l20.48-214.388c0.19-1.888 0.298-4.081 0.298-6.299 0-36.882-29.886-66.783-66.762-66.808h-261.867c-0.017 0-0.036 0-0.056 0-36.846 0-66.715 29.869-66.715 66.715 0 2.24 0.11 4.454 0.326 6.637l-0.022-0.276zM627.464 523.311h-220.874c-2.447-0.006-4.456-1.875-4.684-4.263l-0.001-0.019-20.48-214.357c-0.011-0.121-0.017-0.261-0.017-0.403 0-2.6 2.104-4.709 4.702-4.717h261.866c2.731 0 4.965 2.389 4.655 5.151l-20.449 214.357c-0.245 2.414-2.267 4.282-4.725 4.282-0.008 0-0.016 0-0.024 0h0.001z" />
<glyph unicode="&#xe916;" glyph-name="bank" d="M196.453 588.878c17.138 0 31.030-13.893 31.030-31.030v0-372.364c0-17.138-13.893-31.030-31.030-31.030s-31.030 13.893-31.030 31.030v0 372.364c0 17.138 13.893 31.030 31.030 31.030v0zM858.422 588.878c17.138 0 31.030-13.893 31.030-31.030v0-372.364c0-17.138-13.893-31.030-31.030-31.030s-31.030 13.893-31.030 31.030v0 372.364c0 17.138 13.893 31.030 31.030 31.030v0zM361.968 588.878c17.138 0 31.030-13.893 31.030-31.030v0-372.364c0-17.138-13.893-31.030-31.030-31.030s-31.030 13.893-31.030 31.030v0 372.364c0 17.138 13.893 31.030 31.030 31.030v0zM527.453 588.878c17.138 0 31.030-13.893 31.030-31.030v0-372.364c0-17.138-13.893-31.030-31.030-31.030s-31.030 13.893-31.030 31.030v0 372.364c0 17.138 13.893 31.030 31.030 31.030v0zM692.938 588.878c17.138 0 31.030-13.893 31.030-31.030v0-372.364c0-17.138-13.893-31.030-31.030-31.030s-31.030 13.893-31.030 31.030v0 372.364c0 17.138 13.893 31.030 31.030 31.030v0zM491.272 665.181c-0.001 0.083-0.001 0.181-0.001 0.279 0 19.965 16.185 36.15 36.15 36.15 0.011 0 0.023 0 0.034 0h-0.002c20.077 0 35.964-16.198 36.243-35.747v-0.465c0-0.032 0-0.070 0-0.109 0-20-16.213-36.213-36.213-36.213-19.961 0-36.151 16.151-36.212 36.098v0.006zM517.089 835.32c3.081 1.126 6.639 1.776 10.349 1.776s7.267-0.651 10.565-1.845l-0.216 0.068 393.061-139.047c12.144-4.394 20.666-15.826 20.666-29.248 0-0.005 0-0.009 0-0.014v0.001-109.165c0-17.138-13.893-31.030-31.030-31.030v0h-786.091c-17.138 0-31.030 13.893-31.030 31.030v0 109.165c0 0.001 0 0.001 0 0.002 0 13.434 8.537 24.874 20.481 29.191l0.216 0.068 393.030 139.047zM165.423 645.104v-56.227h724.030v56.165l-362 128.155-362.062-128.155zM133.151 207.422c5.614 5.616 13.37 9.090 21.938 9.092h744.728c8.568-0.002 16.324-3.476 21.938-9.092l41.363-41.363c5.616-5.614 9.090-13.37 9.092-21.938v0-82.758c0-17.138-13.893-31.030-31.030-31.030v0h-827.454c-17.138 0-31.030 13.893-31.030 31.030v0 82.758c0.002 8.568 3.476 16.324 9.092 21.938l41.363 41.363zM167.936 154.453l-23.18-23.211v-38.85h765.362v38.85l-23.211 23.211h-718.941z" />
<glyph unicode="&#xe917;" glyph-name="barcode-circle" d="M421.143 335.050c5.996 5.996 14.279 9.704 23.428 9.704 18.298 0 33.132-14.834 33.132-33.132 0-9.149-3.708-17.432-9.704-23.428v0c-5.996-5.996-14.279-9.704-23.428-9.704-18.298 0-33.132 14.834-33.132 33.132 0 9.149 3.708 17.432 9.704 23.428v0zM545.264 335.050c5.993 5.989 14.27 9.693 23.412 9.693 18.292 0 33.121-14.829 33.121-33.121 0-9.15-3.71-17.433-9.709-23.428v0c-5.993-5.989-14.27-9.693-23.412-9.693-18.292 0-33.121 14.829-33.121 33.121 0 9.15 3.71 17.433 9.709 23.428v0zM692.814 589.871c17.138 0 31.030-13.893 31.030-31.030v0-247.218c0-17.138-13.893-31.030-31.030-31.030s-31.030 13.893-31.030 31.030v0 247.218c0 17.138 13.893 31.030 31.030 31.030v0zM320.45 589.871c17.138 0 31.030-13.893 31.030-31.030v0-247.218c0-17.138-13.893-31.030-31.030-31.030s-31.030 13.893-31.030 31.030v0 247.218c0 17.138 13.893 31.030 31.030 31.030v0zM568.692 589.871c17.138 0 31.030-13.893 31.030-31.030v0-147.921c0-17.138-13.893-31.030-31.030-31.030s-31.030 13.893-31.030 31.030v0 147.921c0 17.138 13.893 31.030 31.030 31.030v0zM444.571 589.871c17.138 0 31.030-13.893 31.030-31.030v0-147.921c0-17.138-13.893-31.030-31.030-31.030s-31.030 13.893-31.030 31.030v0 147.921c0 17.138 13.893 31.030 31.030 31.030v0zM506.632 775.525c-188.509 0-341.333-152.793-341.333-341.333 0-188.509 152.824-341.333 341.333-341.333 188.54 0 341.333 152.824 341.333 341.333 0 188.54-152.793 341.333-341.333 341.333zM103.238 434.192c0 222.798 180.596 403.394 403.394 403.394s403.394-180.596 403.394-403.394-180.596-403.394-403.394-403.394-403.394 180.596-403.394 403.394z" />
<glyph unicode="&#xe918;" glyph-name="barcode-search" d="M622.437 720.508h143.546c28.568 0 51.728-23.159 51.728-51.728v0-143.981c0-17.138 13.893-31.030 31.030-31.030s31.030 13.893 31.030 31.030v0 143.981c0 62.843-50.945 113.788-113.788 113.788v0h-143.515c-17.138 0-31.030-13.893-31.030-31.030s13.893-31.030 31.030-31.030v0zM145.408 493.77c0.102-0.001 0.223-0.002 0.343-0.002 16.949 0 30.689 13.74 30.689 30.689 0 0.121-0.001 0.241-0.002 0.362v-0.018 143.981c0 28.557 23.141 51.71 51.695 51.728h143.982c17.138 0 31.030 13.893 31.030 31.030s-13.893 31.030-31.030 31.030v0h-143.981c-62.738-0.246-113.529-51.048-113.757-113.766v-144.003c0-17.138 13.893-31.030 31.030-31.030v0zM372.115 120.63h-143.981c-28.551 0-51.696 23.145-51.696 51.696v0 143.577c0 17.138-13.893 31.030-31.030 31.030s-31.030-13.893-31.030-31.030v0-143.577c0-62.833 50.927-113.77 113.755-113.788h143.982c17.138 0 31.030 13.893 31.030 31.030s-13.893 31.030-31.030 31.030v0zM459 277.799c-6.088 5.732-14.16 9.418-23.082 9.925l-0.097 0.004c-9.203-0.204-17.493-3.955-23.589-9.935l0.005 0.005c-5.778-6.070-9.333-14.303-9.333-23.366s3.555-17.296 9.346-23.38l-0.013 0.014c5.691-5.648 13.53-9.139 22.184-9.139 0.35 0 0.699 0.006 1.046 0.017l-0.051-0.001c8.751-0.186 17.222 3.103 23.583 9.123 5.489 6.119 8.845 14.25 8.845 23.164s-3.356 17.045-8.874 23.197l0.029-0.033v0.434zM279.862 586.023v-330.969c0-17.138 13.893-31.030 31.030-31.030s31.030 13.893 31.030 31.030v0 330.969c0 17.138-13.893 31.030-31.030 31.030s-31.030-13.893-31.030-31.030v0zM590.165 461.933v124.121c0 17.138-13.893 31.030-31.030 31.030s-31.030-13.893-31.030-31.030v0-124.121c0-17.138 13.893-31.030 31.030-31.030s31.030 13.893 31.030 31.030v0zM435.014 348.144c0.14-0.002 0.304-0.004 0.469-0.004 16.88 0 30.565 13.684 30.565 30.565 0 0.165-0.001 0.33-0.004 0.494v-0.025 206.848c0 17.138-13.893 31.030-31.030 31.030s-31.030-13.893-31.030-31.030v0-206.848c0-17.138 13.893-31.030 31.030-31.030v0zM652.226 586.023v-82.727c0-17.138 13.893-31.030 31.030-31.030s31.030 13.893 31.030 31.030v0 82.727c0 17.138-13.893 31.030-31.030 31.030s-31.030-13.893-31.030-31.030v0zM912.043 111.507l-58.337 58.337c14.429 21.318 23.273 45.925 25.631 71.556 0.43 4.337 0.676 9.375 0.676 14.47 0 42.811-17.332 81.573-45.362 109.653l0.002-0.002c-28.481 27.291-67.202 44.093-109.847 44.093s-81.366-16.802-109.904-44.147l0.057 0.054c-28.215-28.095-45.675-66.972-45.675-109.928 0-85.671 69.45-155.12 155.12-155.12 31.991 0 61.72 9.684 86.416 26.281l-0.556-0.352 57.903-57.934c5.549-5.615 13.251-9.092 21.765-9.092 0.061 0 0.122 0 0.183 0.001h-0.009c0.198-0.005 0.431-0.008 0.665-0.008 8.361 0 15.907 3.488 21.263 9.088l0.010 0.011c5.461 5.528 8.834 13.13 8.834 21.52s-3.373 15.991-8.837 21.523l0.003-0.003zM672.085 178.098c-23.072 15.1-38.765 39.83-41.368 68.344l-0.026 0.357c-0.244 2.529-0.383 5.466-0.383 8.437 0 51.413 41.678 93.091 93.091 93.091s93.091-41.678 93.091-93.091c0-3.124-0.154-6.212-0.454-9.257l0.031 0.385c-2.712-28.436-17.846-52.861-39.842-68.064l-0.311-0.203c-14.553-9.962-32.539-15.909-51.914-15.909s-37.36 5.947-52.232 16.114l0.318-0.205z" />
<glyph unicode="&#xe919;" glyph-name="barcode1" d="M289.358 641.071c0 17.138 13.893 31.030 31.030 31.030v0h413.727c17.138 0 31.030-13.893 31.030-31.030s-13.893-31.030-31.030-31.030v0h-413.727c-17.138 0-31.030 13.893-31.030 31.030v0zM289.358 475.555c0 17.138 13.893 31.030 31.030 31.030v0h413.727c17.138 0 31.030-13.893 31.030-31.030v0-248.242c0-17.138-13.893-31.030-31.030-31.030v0h-413.727c-17.138 0-31.030 13.893-31.030 31.030v0 248.242zM351.418 444.525v-186.182h351.666v186.182h-351.666zM662.621 827.221c0 17.138 13.893 31.030 31.030 31.030v0h143.888c62.826 0 113.757-50.931 113.757-113.757v-143.919c0-17.138-13.893-31.030-31.030-31.030s-31.030 13.893-31.030 31.030v0 143.919c0 28.548-23.118 51.696-51.696 51.696h-143.888c-17.138 0-31.030 13.893-31.030 31.030v0zM103.176 744.495c0.018 62.802 50.924 113.708 113.724 113.726h143.92c17.138 0 31.030-13.893 31.030-31.030s-13.893-31.030-31.030-31.030h-143.919c-28.548 0-51.696-23.118-51.696-51.696v-143.888c0-17.138-13.893-31.030-31.030-31.030s-31.030 13.893-31.030 31.030v0 143.919zM134.206 298.806c17.138 0 31.030-13.893 31.030-31.030v0-143.888c0-28.548 23.118-51.696 51.696-51.696h143.919c17.138 0 31.030-13.893 31.030-31.030s-13.893-31.030-31.030-31.030v0h-143.95c-62.826 0-113.757 50.931-113.757 113.757v0 143.888c0 17.138 13.893 31.030 31.030 31.030v0zM920.266 298.806c17.138 0 31.030-13.893 31.030-31.030v0-143.888c0-62.826-50.931-113.757-113.757-113.757v0h-143.888c-17.138 0-31.030 13.893-31.030 31.030s13.893 31.030 31.030 31.030v0h143.888c28.548 0 51.696 23.118 51.696 51.696v143.888c0 17.138 13.893 31.030 31.030 31.030v0z" />
<glyph unicode="&#xe91a;" glyph-name="basket-arrow-circle" d="M319.209 207.608c5.615 5.613 13.371 9.085 21.938 9.085s16.323-3.472 21.939-9.085l82.789-82.789c5.613-5.615 9.085-13.371 9.085-21.938s-3.472-16.323-9.085-21.939l-82.789-82.789c-5.616-5.612-13.372-9.083-21.938-9.083-17.141 0-31.037 13.896-31.037 31.037 0 8.574 3.477 16.337 9.098 21.954l60.851 60.82-60.819 60.819c-5.623 5.617-9.101 13.379-9.101 21.954s3.478 16.337 9.1 21.954v0zM144.57 102.881c0 17.138 13.893 31.030 31.030 31.030v0h248.336c17.138 0 31.030-13.893 31.030-31.030s-13.893-31.030-31.030-31.030v0h-248.304c-17.138 0-31.030 13.893-31.030 31.030v0zM218.888 716.909c73.278 74.594 175.217 120.822 287.954 120.822 222.874 0 403.549-180.675 403.549-403.549 0-191.12-132.86-351.21-311.259-392.947l-2.73-0.538c-1.984-0.451-4.262-0.71-6.6-0.71-17.138 0-31.030 13.893-31.030 31.030 0 14.591 10.071 26.83 23.64 30.145l0.213 0.044c153.26 35.784 265.674 171.247 265.674 332.966 0 188.599-152.89 341.488-341.488 341.488s-341.488-152.89-341.488-341.488c0-55.361 13.174-107.645 36.557-153.888l-0.895 1.952c1.788-3.8 2.832-8.254 2.832-12.952 0-17.138-13.893-31.030-31.030-31.030-11.767 0-22.005 6.55-27.265 16.203l-0.081 0.163c-26.586 52.349-42.159 114.146-42.159 179.581 0 110.128 44.114 209.954 115.636 282.768l-0.059-0.060zM393.619 417.466l26.531-97.28h173.211l26.531 97.28h-226.304zM594.882 320.186h0.062l-0.062-31.030v31.030zM594.851 258.126h-176.345c-27.514 0.012-50.698 18.538-57.771 43.796l-0.101 0.422-27.617 101.407c-1.338 4.727-2.107 10.155-2.107 15.763 0 33.121 26.832 59.976 59.944 60.013h0.066l-0.093-31.030 0.031 31.030h231.765c33.14 0 59.982-26.872 59.982-60.013v-0.155c0-5.275-0.714-10.488-2.11-15.577l-27.648-101.438c-7.176-25.688-30.372-44.218-57.897-44.218-0.035 0-0.069 0-0.104 0h0.005zM494.84 541.836l-81.889-112.33c-5.691-7.98-14.915-13.121-25.341-13.121-17.138 0-31.030 13.893-31.030 31.030 0 7.032 2.339 13.518 6.282 18.722l-0.056-0.077 81.951 112.423c14.089 19.089 36.499 31.333 61.769 31.333 16.997 0 32.7-5.539 45.402-14.911l-0.21 0.148 0.093-0.062c6.268-4.624 11.823-10.178 16.446-16.446l0.062-0.093 82.23-112.454c3.455-4.933 5.522-11.060 5.522-17.669 0-17.138-13.893-31.030-31.030-31.030-9.972 0-18.845 4.704-24.522 12.013l-0.053 0.070-82.199 112.392c-2.665 3.636-6.921 5.97-11.721 5.97-4.773 0-9.008-2.308-11.648-5.869l-0.028-0.039z" />
<glyph unicode="&#xe91b;" glyph-name="basket-checkmark" d="M187.826 420.383l79.003-289.699c6.198-22.164 26.209-38.153 49.957-38.167h421.331c23.749 0.015 43.76 16.003 49.871 37.803l0.087 0.365 79.003 289.699c1.159 4.085 1.825 8.776 1.825 13.622 0 28.585-23.173 51.759-51.759 51.759-0.009 0-0.018 0-0.026 0h-579.303c-28.596-0.009-51.774-23.192-51.774-51.79 0-4.835 0.663-9.516 1.902-13.956l-0.087 0.364zM127.938 404.092c-19.673 72.363 34.754 143.732 109.847 143.732h579.336c75.062 0 129.583-71.37 109.847-143.763l-79.034-289.73c-13.625-48.716-57.614-83.856-109.814-83.875h-421.301c-52.207 0.001-96.208 35.131-109.655 83.042l-0.192 0.802-79.003 289.792zM612.848 798.456l226.769-260.251c5.305-5.558 8.57-13.103 8.57-21.411 0-17.138-13.893-31.030-31.030-31.030-0.002 0-0.004 0-0.006 0v0c-0.010 0-0.022 0-0.034 0-9.317 0-17.675 4.106-23.363 10.607l-0.031 0.036-227.669 261.275c-9.433 10.923-23.3 17.794-38.772 17.794s-29.34-6.871-38.717-17.729l-0.055-0.065-60.664-70.066c-79.441-92.39-133.922-154.647-188.721-216.615l21.964 25.314c-5.721-6.483-14.048-10.55-23.326-10.55-0.003 0-0.006 0-0.009 0h-0.031c-17.124 0.018-30.999 13.904-30.999 31.030 0 8.384 3.325 15.991 8.727 21.575l-0.008-0.008c47.787 53.962 106.806 122.135 165.236 189.626l60.944 70.346zM612.848 798.456c-20.871 23.997-51.453 39.080-85.559 39.080-34.163 0-64.792-15.134-85.547-39.064l-0.119-0.14 171.225 0.124zM632.18 365.646c5.613-5.615 9.085-13.371 9.085-21.938s-3.472-16.323-9.085-21.939l-89.367-89.367c-5.617-5.623-13.379-9.101-21.954-9.101s-16.337 3.478-21.954 9.1l-53.59 53.652c-5.835 5.649-9.457 13.554-9.457 22.304 0 17.138 13.893 31.030 31.030 31.030 8.766 0 16.683-3.635 22.326-9.48l31.66-31.66 67.398 67.398c5.617 5.623 13.379 9.101 21.954 9.101s16.337-3.478 21.954-9.1v0z" />
<glyph unicode="&#xe91c;" glyph-name="basket-globe" d="M937.488 215.428c-5.445 6.86-12.202 12.427-19.922 16.381l-0.341 0.158-96.815 110.468c-11.59 12.431-28.062 20.181-46.344 20.181s-34.754-7.75-46.309-20.144l-0.035-0.038-95.977-110.468c-7.882-3.972-14.801-9.619-20.294-16.539-7.985-10.388-12.797-23.578-12.797-37.891 0-5.658 0.752-11.141 2.161-16.353l-0.101 0.438 28.951-105.503c7.885-25.955 31.542-44.544 59.562-44.684h170.465c28.191 0.059 51.964 18.904 59.469 44.679l0.109 0.439 28.982 105.503c1.298 4.724 2.044 10.148 2.044 15.746 0 14.229-4.82 27.333-12.917 37.767l0.105-0.14zM772.003 301.475l54.613-62.464h-108.42l53.807 62.464zM857.647 73.495h-169.643l-29.789 103.858h228.383l-28.951-103.858zM536.173 330.426c0.002 0.13 0.003 0.284 0.003 0.438 0 16.898-13.698 30.596-30.596 30.596-0.154 0-0.307-0.001-0.461-0.003h-126.984c-4.542 28.045-7.138 60.374-7.138 93.308s2.595 65.263 7.593 96.792l-0.455-3.484h254.448c4.934-30.782 7.447-61.936 7.447-93.091 0-0.013 0-0.027 0-0.042 0-17.066 13.6-30.955 30.553-31.422l0.043-0.001c17.047 0.224 30.806 13.984 31.030 31.009v0.021c0.001 0.478 0.002 1.044 0.002 1.61 0 32.429-2.403 64.296-7.042 95.434l0.431-3.518h138.178c8.657-30.41 13.095-61.905 13.25-93.525 0-17.138 13.893-31.030 31.030-31.030s31.030 13.893 31.030 31.030v0c-0.229 222.777-180.649 403.339-403.35 403.797h-0.044c-173.086-0.376-320.566-109.595-377.659-262.829l-0.911-2.791c-0.085-0.745-0.133-1.608-0.133-2.482s0.048-1.738 0.143-2.587l-0.009 0.105c-14.671-39.645-23.159-85.438-23.159-133.213s8.488-93.568 24.039-135.953l-0.879 2.74c-0.081-0.68-0.127-1.467-0.127-2.265s0.046-1.585 0.136-2.359l-0.009 0.094c57.906-156.096 205.444-265.368 378.539-265.619h0.031c0.126-0.002 0.274-0.003 0.423-0.003 4.335 0 8.457 0.915 12.182 2.561l-0.193-0.076h2.886c2.602 1.074 4.815 2.609 6.633 4.522l0.008 0.008c0.937 0.743 1.647 1.733 2.035 2.873l0.013 0.044c1.924 2.141 3.6 4.499 4.965 7.013v4.561c0.217 2.482 0.217 4.965 0 7.447 0.096 0.93 0.151 2.010 0.151 3.103s-0.055 2.173-0.162 3.237l0.011-0.134v5.803c-1.057 1.896-2.294 3.528-3.725 4.966l0.001-0.001c-0.764 1.899-1.735 3.538-2.915 5.002l0.029-0.037-4.965 3.289-4.965 3.32h-12.009c-0.006 0-0.012 0-0.019 0-20.95 0-39.245 11.37-49.050 28.276l-0.145 0.272c-27.241 45.366-49.621 97.808-64.41 153.347l-0.971 4.287h114.192c0.078-0.001 0.169-0.001 0.261-0.001 17.172 0 31.092 13.921 31.092 31.092 0 1.577-0.117 3.126-0.344 4.64l0.021-0.171zM315.237 361.456h-138.178c-8.4 27.947-13.235 60.063-13.235 93.308s4.835 65.361 13.84 95.682l-0.605-2.374h138.178c-3.886-27.776-6.105-59.864-6.105-92.47s2.219-64.695 6.514-96.122l-0.408 3.652v-1.676zM390.951 609.699c15.76 59.825 38.14 112.268 66.932 160.435l-1.552-2.801c9.95 17.178 28.245 28.548 49.195 28.548 0.007 0 0.013 0 0.020 0h-0.001c20.837-0.045 39.010-11.412 48.697-28.274l0.145-0.274c26.727-44.76 48.806-96.492 63.552-151.232l0.991-4.323-227.98-2.079zM809.239 609.699h-124.121c-15.090 62.721-36.687 117.871-64.673 169.027l1.775-3.542c81.534-30.077 146.912-87.8 186.121-161.554l0.898-1.852v-2.079zM390.113 775.184c-26.388-47.639-47.99-102.81-61.949-160.955l-0.918-4.53h-124.121c39.318 77.301 104.848 136.532 184.636 166.781l2.352 0.783v-2.079zM390.113 133.477c-82.518 30.197-148.594 88.765-187.766 163.631l-0.898 1.884h124.121c15.572-61.976 37.699-116.385 66.249-166.67l-1.706 3.264v-2.079z" />
<glyph unicode="&#xe91d;" glyph-name="basket-ircle" d="M113.602 434.005c0 222.86 180.689 403.549 403.549 403.549s403.549-180.72 403.549-403.549-180.689-403.549-403.549-403.549-403.549 180.689-403.549 403.58zM517.151 775.494c-188.602 0-341.488-152.886-341.488-341.488s152.886-341.488 341.488-341.488c188.602 0 341.488 152.886 341.488 341.488s-152.886 341.488-341.488 341.488zM341.582 431.244s0 0.031 0 0l39.533-144.787c1.241-4.53 5.337-7.664 10.023-7.664h252.059c4.655 0 8.751 3.103 9.992 7.664l39.533 144.818c0.233 0.819 0.366 1.759 0.366 2.731 0 5.722-4.637 10.361-10.358 10.364h-331.094c-0.005 0-0.010 0-0.015 0-5.741 0-10.395-4.654-10.395-10.395 0-0.96 0.13-1.89 0.374-2.773l-0.017 0.073zM281.693 414.984c-1.608 5.695-2.533 12.235-2.533 18.991 0 40.016 32.44 72.456 72.456 72.456 0.007 0 0.014 0 0.021 0h331.092c39.998-0.024 72.413-32.454 72.413-72.456 0-6.756-0.925-13.296-2.654-19.5l0.121 0.51-39.533-144.912c-8.667-31.002-36.661-53.364-69.879-53.372h-252.060c-33.219 0.008-61.214 22.371-69.758 52.862l-0.122 0.51-39.533 144.912zM509.207 606.41l-132.127-151.397c-5.718-6.529-14.071-10.629-23.381-10.629-17.138 0-31.031 13.893-31.031 31.031 0 7.828 2.898 14.979 7.681 20.438l-0.031-0.036 132.127 151.428c13.346 15.222 32.83 24.781 54.547 24.781 21.688 0 41.15-9.533 54.423-24.638l0.070-0.081 132.499-151.459c4.634-5.389 7.455-12.453 7.455-20.176 0-17.138-13.893-31.030-31.030-31.030-9.174 0-17.419 3.981-23.1 10.311l-0.025 0.029-132.499 151.428c-1.909 2.167-4.69 3.527-7.789 3.527s-5.88-1.36-7.779-3.515l-0.010-0.011z" />
<glyph unicode="&#xe91e;" glyph-name="basket-pack-1" d="M876.327 499.759c-18.062 22.591-44.407 37.903-74.365 41.316l-0.511 0.047-220.098 252.804c-20.744 23.848-51.141 38.838-85.037 38.838-34.099 0-64.654-15.168-85.288-39.125l-0.124-0.147-60.819-69.911c-79.487-92.473-131.395-151.852-183.565-210.994l24.69 28.536c-30.453-3.55-56.78-18.838-74.739-41.147l-0.169-0.217c-14.578-19.069-23.359-43.247-23.359-69.475 0-10.606 1.436-20.877 4.124-30.629l-0.19 0.808 79.003-289.606c14.271-48.183 58.13-82.738 110.062-82.758h420.773c51.922 0.034 95.765 34.585 109.827 81.947l0.207 0.811 79.034 289.606c2.491 8.933 3.923 19.192 3.923 29.785 0 26.244-8.788 50.434-23.583 69.79l0.204-0.278zM396.816 684.296l60.416 69.911c9.241 10.907 22.949 17.784 38.262 17.784 0.218 0 0.435-0.001 0.652-0.004h-0.033c0.065 0 0.142 0 0.218 0 15.312 0 29.018-6.876 38.199-17.708l0.060-0.073 183.296-209.765h-441.034l119.963 139.854zM835.801 416.97l-79.034-289.606c-6.060-22.327-26.145-38.478-50.002-38.478-0.018 0-0.035 0-0.053 0h-421.172c-23.841 0.108-43.893 16.203-49.996 38.111l-0.087 0.367-79.003 289.606c-1.099 3.996-1.73 8.583-1.73 13.319 0 12.025 4.071 23.099 10.911 31.918l-0.089-0.119c9.385 12.365 24.093 20.268 40.646 20.268 0.252 0 0.504-0.002 0.756-0.005h579.205c0.059 0 0.129 0 0.2 0 28.551 0 51.696-23.145 51.696-51.696 0-4.87-0.673-9.582-1.932-14.049l0.088 0.364h-0.403zM392.688 358.26c-17.047-0.224-30.806-13.984-31.030-31.009v-82.779c0-17.138 13.893-31.030 31.030-31.030s31.030 13.893 31.030 31.030v0 82.758c-0.241 17.040-13.991 30.789-31.007 31.030h-0.023zM599.568 358.26c-17.047-0.224-30.806-13.984-31.030-31.009v-82.779c0-17.138 13.893-31.030 31.030-31.030s31.030 13.893 31.030 31.030v0 82.758c0 17.138-13.893 31.030-31.030 31.030v0z" />
<glyph unicode="&#xe91f;" glyph-name="basket-pack-delete-empty" d="M838.749 397.141l14.026 50.486c2.386 8.3 3.758 17.833 3.758 27.687 0 23.944-8.103 45.996-21.716 63.562l0.177-0.237c-15.841 21.705-39.541 36.857-66.836 41.284l-0.593 0.079-194.87 223.418c-19.007 22.092-46.998 35.996-78.236 35.996-0.128 0-0.256 0-0.383-0.001h0.020c-31.349-0.054-59.445-13.935-78.523-35.868l-0.108-0.127-52.938-61.223c-49.648-57.096-99.7-115.029-141.498-162.195-27.887-4.51-51.585-19.661-67.225-41.071l-0.203-0.292c-13.45-17.335-21.562-39.397-21.562-63.355 0-9.843 1.369-19.366 3.928-28.389l-0.177 0.732 70.346-257.334c12.532-44.834 52.927-77.209 100.917-77.421h275.976c35.946-50.637 94.362-83.28 160.402-83.28 108.309 0 196.112 87.802 196.112 196.112 0 73.325-40.241 137.251-99.844 170.897l-0.979 0.508zM409.29 699.563l52.938 61.254c7.626 8.876 18.864 14.463 31.407 14.463 0.162 0 0.324-0.001 0.486-0.003h-0.025c0.124 0.001 0.27 0.002 0.416 0.002 12.547 0 23.789-5.586 31.375-14.408l0.046-0.055 157.634-180.814h-378.135l103.827 119.56zM307.045 174.964c-0.357-0.011-0.776-0.017-1.198-0.017-19.336 0-35.574 13.268-40.105 31.196l-0.061 0.286-70.315 257.707c-1.033 3.442-1.628 7.397-1.628 11.491 0 9.59 3.264 18.418 8.741 25.433l-0.069-0.092c7.612 10.323 19.726 16.946 33.387 16.946 0.186 0 0.372-0.001 0.557-0.004h516.316c0.038 0 0.083 0 0.128 0 13.66 0 25.773-6.621 33.305-16.829l0.080-0.113c5.589-6.991 8.968-15.96 8.968-25.719 0-3.956-0.555-7.783-1.592-11.405l0.071 0.292-12.009-44.684c-12.064 2.662-25.921 4.186-40.134 4.186-107.401 0-194.467-87.066-194.467-194.467 0-0.741 0.004-1.481 0.012-2.22l-0.001 0.113c0.155-17.625 2.669-35.157 7.447-52.131h-247.405zM742.71 92.238c-0.129 0-0.282-0.001-0.434-0.001-74.497 0-134.889 60.392-134.889 134.889s60.392 134.889 134.889 134.889c74.497 0 134.889-60.392 134.889-134.889 0-0.011 0-0.021 0-0.032v0.002c0-0.111 0.001-0.241 0.001-0.372 0-74.263-60.194-134.468-134.453-134.485h-0.002zM802.32 286.673c-5.613 5.604-13.363 9.070-21.923 9.070s-16.309-3.466-21.923-9.070v0l-15.732-15.732-15.732 15.732c-5.627 5.574-13.373 9.018-21.923 9.018-17.208 0-31.158-13.95-31.158-31.158 0-8.658 3.531-16.491 9.232-22.138l0.002-0.002 15.732-15.298-15.732-15.732c-5.711-5.564-9.254-13.33-9.254-21.923s3.543-16.359 9.247-21.917l0.007-0.006c5.483-5.613 13.127-9.094 21.584-9.094 0.125 0 0.249 0.001 0.373 0.002h-0.019c0.042 0 0.093 0 0.143 0 8.514 0 16.215 3.477 21.762 9.089l0.003 0.003 15.732 15.329 15.732-15.329c5.361-5.611 12.903-9.099 21.26-9.099 0.228 0 0.455 0.003 0.682 0.008l-0.034-0.001c0.048 0 0.104 0 0.161 0 8.518 0 16.223 3.477 21.775 9.090l0.003 0.003c5.604 5.613 9.070 13.363 9.070 21.923s-3.466 16.309-9.070 21.923v0l-15.732 15.732 15.732 15.298c5.535 5.725 8.947 13.534 8.947 22.14s-3.411 16.415-8.955 22.149l0.009-0.009z" />
<glyph unicode="&#xe920;" glyph-name="basket-pack-enter" d="M186.058 578.793c-5.724 0-10.364-4.64-10.364-10.364v0-82.727c0-5.71 4.655-10.364 10.364-10.364h661.938c5.71 0 10.364 4.655 10.364 10.364v82.696c0 5.724-4.64 10.364-10.364 10.364v0h-661.938zM113.633 568.429c0 39.999 32.426 72.425 72.425 72.425v0h661.938c39.999 0 72.425-32.426 72.425-72.425v0-82.727c0-39.999-32.426-72.425-72.425-72.425v0h-661.938c-39.999 0-72.425 32.426-72.425 72.425v0 82.696zM585.48 842.054l-0.138-0.078c-8.963-5.441-14.951-15.293-14.951-26.544 0-5.891 1.641-11.398 4.414-15.951l122.557-204.516c5.364-9.28 15.395-15.525 26.885-15.525 17.138 0 31.030 13.893 31.030 31.030 0 6.135-1.78 11.854-4.778 16.543l-122.524 204.504c-5.441 8.963-15.293 14.951-26.544 14.951-5.891 0-11.398-1.641-15.951-4.414zM448.574 842.054l0.138-0.078c-4.691 2.85-10.199 4.492-16.089 4.492-11.251 0-21.103-5.988-26.622-15.088l-122.371-204.241c-3.072-4.815-4.852-10.534-4.852-16.669 0-17.138 13.893-31.030 31.030-31.030 11.49 0 21.521 6.245 26.964 15.675l122.399 204.228c2.85 4.691 4.492 10.199 4.492 16.089 0 11.251-5.988 21.103-15.088 26.622zM723.968 413.122h0.129c97.075-0.053 175.76-78.738 175.813-175.818v-0.003c-0.035-97.090-78.727-175.792-175.818-175.845h0.010c-0.066 0-0.131 0-0.197 0-96.999 0-175.632 78.633-175.632 175.632 0 0.076 0 0.153 0 0.217 0 95.046 81.299 176.159 175.694 175.818zM724.154 475.183c-128.993 0.434-237.94-108.73-237.94-237.878 0-0.064 0-0.141 0-0.217 0-131.274 106.418-237.692 237.692-237.692 0.065 0 0.131 0 0.196 0h-0.010c131.366 0.053 237.843 106.541 237.878 237.906v0.003c-0.053 131.333-106.488 237.79-237.808 237.878h-0.009zM189.502 474.686c1.971 0.446 4.236 0.701 6.559 0.701 14.825 0 27.221-10.396 30.297-24.295l0.038-0.206 69.787-322.25c3.133-14.078 15.513-24.448 30.316-24.452h271.733c17.138 0 31.030-13.893 31.030-31.030s-13.893-31.030-31.030-31.030v0h-271.732c-0.004 0-0.008 0-0.013 0-44.41 0-81.556 31.097-90.852 72.704l-0.116 0.62-69.787 322.312c-0.451 1.982-0.709 4.259-0.709 6.595 0 14.816 10.384 27.207 24.272 30.292l0.206 0.038zM610.118 237.459c0 17.138 13.893 31.030 31.030 31.030v0h165.485c17.138 0 31.030-13.893 31.030-31.030s-13.893-31.030-31.030-31.030v0h-165.485c-17.138 0-31.030 13.893-31.030 31.030v0zM701.936 342.125c5.617 5.623 13.379 9.101 21.954 9.101s16.337-3.478 21.954-9.1v0l82.727-82.727c5.613-5.615 9.085-13.371 9.085-21.938s-3.472-16.323-9.085-21.939l-82.727-82.758c-5.617-5.621-13.38-9.098-21.954-9.098-17.141 0-31.037 13.896-31.037 31.037 0 8.567 3.471 16.323 9.083 21.939l60.819 60.819-60.819 60.819c-5.604 5.613-9.070 13.363-9.070 21.923s3.466 16.309 9.070 21.923v0z" />
<glyph unicode="&#xe921;" glyph-name="basket-pack1" d="M599.661 310.753c17.16 0 31.061-13.933 31.061-31.092v-41.767c0.010-0.293 0.016-0.637 0.016-0.982 0-17.172-13.921-31.092-31.092-31.092s-31.092 13.921-31.092 31.092c0 0.345 0.006 0.689 0.017 1.032l-0.001-0.050v41.767c0 17.16 13.902 31.092 31.092 31.092zM434.145 310.753c17.191 0 31.092-13.933 31.092-31.092v-41.767c0.010-0.293 0.016-0.637 0.016-0.982 0-17.172-13.921-31.092-31.092-31.092s-31.092 13.921-31.092 31.092c0 0.345 0.006 0.689 0.017 1.032l-0.001-0.050v41.767c0 17.16 13.902 31.092 31.061 31.092zM185.934 578.793c-5.724 0-10.364-4.64-10.364-10.364v0-82.727c0-5.71 4.655-10.364 10.364-10.364h661.969c5.679 0 10.333 4.655 10.333 10.364v82.696c0 5.724-4.64 10.364-10.364 10.364v0h-661.938zM113.509 568.429c0 39.999 32.426 72.425 72.425 72.425v0h661.969c39.986-0.018 72.394-32.437 72.394-72.425v0-82.727c0-39.999-32.426-72.425-72.425-72.425h-661.938c-39.999 0-72.425 32.426-72.425 72.425v0 82.696zM585.356 842.054c4.554 2.773 10.061 4.414 15.951 4.414 11.251 0 21.103-5.988 26.544-14.951l0.078-0.138 122.446-204.366c2.997-4.69 4.778-10.409 4.778-16.543 0-17.138-13.893-31.030-31.030-31.030-11.49 0-21.521 6.245-26.885 15.525l-0.080 0.15-122.477 204.366c-2.773 4.554-4.414 10.061-4.414 15.951 0 11.251 5.988 21.103 14.951 26.544l0.138 0.078zM448.45 842.054c9.101-5.519 15.088-15.371 15.088-26.622 0-5.891-1.641-11.398-4.492-16.089l0.078 0.138-122.446-204.366c-5.52-9.099-15.373-15.086-26.624-15.086-17.141 0-31.036 13.895-31.036 31.036 0 5.89 1.641 11.396 4.49 16.087l-0.078-0.138 122.477 204.366c5.52 9.093 15.369 15.075 26.614 15.075 5.881 0 11.38-1.636 16.067-4.478l-0.138 0.078zM189.378 474.686c1.973 0.447 4.24 0.703 6.566 0.703 14.814 0 27.204-10.381 30.291-24.265l0.039-0.206 69.756-322.25c3.133-14.078 15.513-24.448 30.316-24.452h381.053c14.795 0.001 27.171 10.356 30.278 24.214l0.039 0.207 69.818 322.281c3.395 13.734 15.61 23.756 30.166 23.756 17.138 0 31.030-13.893 31.030-31.030 0-2.081-0.205-4.114-0.595-6.080l0.033 0.197-69.756-322.219c-9.388-42.258-46.549-73.386-90.981-73.387h-381.052c-44.402 0.009-81.539 31.103-90.833 72.704l-0.116 0.62-69.818 322.281c-0.451 1.982-0.709 4.259-0.709 6.595 0 14.816 10.384 27.207 24.272 30.292l0.206 0.038z" />
<glyph unicode="&#xe922;" glyph-name="basket-refresh" d="M653.653 792.995c0 17.138 13.893 31.030 31.030 31.030v0h120.025c17.138 0 31.030-13.893 31.030-31.030s-13.893-31.030-31.030-31.030v0h-120.025c-17.138 0-31.030 13.893-31.030 31.030v0zM105.906 494.98c26.039 200.003 195.344 352.877 400.355 352.877 0.163 0 0.326 0 0.489 0h-0.025c17.124-0.018 30.999-13.904 30.999-31.030 0-17.138-13.893-31.030-31.030-31.030-0.011 0-0.022 0-0.033 0h0.002c-0.139 0-0.303 0-0.467 0-188.599 0-341.488-152.89-341.488-341.488s152.89-341.488 341.488-341.488c188.599 0 341.488 152.89 341.488 341.488 0 128.616-71.103 240.625-176.146 298.863l-1.749 0.89c-9.704 5.376-16.164 15.556-16.164 27.245 0 17.144 13.898 31.043 31.043 31.043 5.456 0 10.583-1.407 15.038-3.879l-0.159 0.081c126.204-69.872 210.234-202.239 210.234-354.233 0-222.874-180.675-403.549-403.549-403.549s-403.549 180.675-403.549 403.549c0 17.86 1.16 35.449 3.409 52.696l-0.217-2.033zM653.653 672.97v0c0-17.138 13.893-31.030 31.030-31.030s31.030 13.893 31.030 31.030v120.025h-62.061v-120.025zM393.619 427.768l26.531-97.28h173.211l26.531 97.28h-226.304zM594.882 330.488h0.062l-0.062-31.030v31.030zM594.851 268.428h-176.345c-27.514 0.012-50.698 18.538-57.771 43.796l-0.101 0.422-27.617 101.407c-1.338 4.727-2.107 10.155-2.107 15.763 0 33.121 26.832 59.976 59.944 60.013h0.066l-0.093-31.030 0.031 31.030h231.765c33.109 0 59.982-26.872 59.982-60.013v-0.093c0-5.275-0.745-10.55-2.11-15.67l-27.648-101.407c-7.176-25.688-30.372-44.218-57.897-44.218-0.046 0-0.091 0-0.137 0h0.007zM494.84 552.231v-0.031l-81.889-112.33c-5.722-7.555-14.699-12.386-24.804-12.386-17.138 0-31.030 13.893-31.030 31.030 0 6.712 2.131 12.927 5.754 18.004l-0.064-0.095 81.951 112.423c14.089 19.089 36.499 31.333 61.769 31.333 16.997 0 32.7-5.539 45.402-14.911l-0.21 0.148 0.093-0.062c6.268-4.592 11.792-10.147 16.446-16.446l0.062-0.062 82.23-112.454c3.455-4.933 5.522-11.060 5.522-17.669 0-17.138-13.893-31.030-31.030-31.030-9.972 0-18.845 4.704-24.522 12.013l-0.053 0.070-82.199 112.361c-2.665 3.636-6.921 5.97-11.721 5.97-4.773 0-9.008-2.308-11.648-5.869l-0.028-0.039z" />
<glyph unicode="&#xe923;" glyph-name="basket-shopping-cart-check-mark" d="M835.305 454.609l-15.329-50.455h2.079c60.21-34.251 100.158-97.977 100.158-171.034 0-108.309-87.802-196.112-196.112-196.112-65.88 0-124.173 32.485-159.734 82.311l-0.405 0.597h-275.549c-47.999 0.203-88.387 32.551-100.764 76.619l-0.178 0.74-70.346 257.334c-2.383 8.293-3.753 17.818-3.753 27.664 0 23.956 8.113 46.016 21.741 63.584l-0.176-0.236c16.067 21.009 39.77 35.477 66.894 39.254l0.535 0.061c41.767 47.166 91.85 105.1 141.064 162.195l52.969 61.223c19.241 21.967 47.286 35.814 78.568 35.995h0.032c0.062 0 0.136 0 0.209 0 31.295 0 59.344-13.9 78.31-35.863l0.112-0.132 194.436-223.418c27.69-3.74 51.423-18.235 67.247-39.066l0.182-0.249c13.521-17.216 21.684-39.199 21.684-63.088 0-9.943-1.414-19.556-4.053-28.649l0.18 0.725zM443.485 767.798l-52.938-61.223-26.159-30.161c-26.748-30.844-53.124-61.316-78.103-89.398h378.57l-157.634 180.783c-7.638 8.894-18.896 14.493-31.461 14.493-0.143 0-0.286-0.001-0.429-0.002h0.022c-0.125 0.001-0.273 0.002-0.421 0.002-12.561 0-23.815-5.599-31.401-14.438l-0.046-0.055zM262.113 190.386c7.509-5.71 16.756-8.688 26.221-8.409l246.598 0.403c-4.92 16.262-7.752 34.952-7.752 54.303 0 107.178 86.885 194.064 194.064 194.064 14.308 0 28.254-1.548 41.68-4.487l-1.284 0.236 12.412 44.684c1.218 3.723 1.92 8.008 1.92 12.457 0 22.844-18.519 41.363-41.363 41.363-0.675 0-1.347-0.016-2.014-0.048l0.094 0.004h-514.669c-0.146 0.002-0.318 0.003-0.491 0.003-13.679 0-25.808-6.635-33.345-16.863l-0.080-0.114c-5.404-6.922-8.666-15.747-8.666-25.333 0-4.086 0.592-8.033 1.696-11.761l-0.074 0.293 69.911-257.769c2.265-9.185 7.602-17.315 15.143-23.024zM648.657 121.965c21.050-14.242 47.002-22.736 74.938-22.736 74.484 0 134.864 60.381 134.864 134.864 0 46.547-23.581 87.587-59.449 111.824l-0.477 0.304c-21.050 14.242-47.002 22.736-74.938 22.736-74.484 0-134.864-60.381-134.864-134.864 0-46.547 23.581-87.587 59.449-111.824l0.477-0.304zM708.701 240.314l53.372 53.372c5.52 5.13 12.942 8.278 21.1 8.278 8.976 0 17.062-3.811 22.728-9.904l0.018-0.019c5.543-5.722 8.959-13.532 8.959-22.14s-3.416-16.418-8.967-22.149l0.008 0.008-75.311-73.232c-5.613-5.604-13.363-9.070-21.923-9.070s-16.309 3.466-21.923 9.070v0l-45.056 45.087c-5.209 5.537-8.41 13.016-8.41 21.242 0 17.138 13.893 31.030 31.030 31.030 8.218 0 15.69-3.195 21.242-8.41l-0.016 0.015 23.18-23.18z" />
<glyph unicode="&#xe924;" glyph-name="basket-shopping-cart1" d="M377.080 843.76l0.154-0.080c-4.506 2.551-9.714 4.006-15.262 4.006-11.582 0-21.682-6.346-27.094-15.904l-87.239-156.084c-2.562-4.515-4.025-9.735-4.025-15.297 0-17.14 13.895-31.035 31.035-31.035 11.578 0 21.675 6.34 27.089 15.892l87.239 156.115c2.559 4.512 4.020 9.728 4.020 15.285 0 11.587-6.351 21.691-15.917 27.101zM635.439 843.14l-0.134-0.077c-8.854-5.465-14.755-15.256-14.755-26.425 0-5.966 1.683-11.538 4.524-16.134l95.216-156.372c5.465-8.862 15.262-14.769 26.439-14.769 17.142 0 31.039 13.897 31.039 31.039 0 5.966-1.683 11.539-4.524 16.136l-95.247 156.403c-5.465 8.854-15.256 14.755-26.425 14.755-5.966 0-11.538-1.683-16.134-4.524zM692.938 454.64h-0.001c0.006 0 0.011 0 0.017 0 97.119 0 175.849-78.73 175.849-175.849 0-97.113-78.721-175.84-175.833-175.849h0.001c-0.006 0-0.011 0-0.017 0-97.119 0-175.849 78.73-175.849 175.849 0 97.113 78.721 175.84 175.833 175.849zM692.938 40.913c131.385 0 237.894 106.509 237.894 237.894s-106.509 237.894-237.894 237.894v0c-131.385 0-237.894-106.509-237.894-237.894s106.509-237.894 237.894-237.894v0zM126.604 556.544c-1.593 7.060-2.505 15.169-2.505 23.49 0 61.471 49.803 111.31 111.261 111.368h550.576c71.090 0 123.811-65.598 108.792-134.889l-29.106-134.299c-2.8-14.494-15.387-25.292-30.495-25.292-17.138 0-31.030 13.893-31.030 31.030 0 2.623 0.325 5.169 0.938 7.601l-0.046-0.214 29.075 134.299c0.723 3.161 1.137 6.792 1.137 10.519 0 27.18-22.034 49.214-49.214 49.214-0.007 0-0.014 0-0.021 0h-550.632c-31.341 0-54.737-29.013-48.097-59.733l60.819-281.041c4.941-22.315 24.558-38.757 48.015-38.757 0.040 0 0.079 0 0.119 0h198.743c17.138 0 31.030-13.893 31.030-31.030s-13.893-31.030-31.030-31.030v0h-198.718c-0.022 0-0.049 0-0.076 0-53.105 0-97.513 37.231-108.548 87.015l-0.137 0.739-60.881 281.010zM688.004 379.609c17.138 0 31.030-13.893 31.030-31.030v0-63.395l48.718-29.696c9.433-5.443 15.68-15.476 15.68-26.967 0-17.138-13.893-31.030-31.030-31.030-6.318 0-12.196 1.888-17.099 5.132l0.116-0.072-63.55 38.788c-8.981 5.535-14.881 15.311-14.895 26.467v80.805c0 17.138 13.893 31.030 31.030 31.030v0z" />
<glyph unicode="&#xe925;" glyph-name="bell-notification" d="M611.98 222.472c17.138 0 31.030-13.893 31.030-31.030v0-15.081c0-0.009 0-0.020 0-0.031 0-69.51-56.349-125.859-125.859-125.859-69.499 0-125.841 56.331-125.859 125.826v15.114c0 17.138 13.893 31.030 31.030 31.030s31.030-13.893 31.030-31.030v0-15.112c0.018-35.222 28.574-63.767 63.798-63.767 35.235 0 63.798 28.563 63.798 63.798 0 0.011 0 0.022 0 0.033v-0.002 15.081c0 17.138 13.893 31.030 31.030 31.030v0zM410.283 750.39c0 59.022 47.847 106.868 106.868 106.868s106.868-47.847 106.868-106.868v0-37.981c0-17.138-13.893-31.030-31.030-31.030s-31.030 13.893-31.030 31.030v0 37.981c0 24.747-20.061 44.808-44.808 44.808s-44.808-20.061-44.808-44.808v0-37.981c0-17.138-13.893-31.030-31.030-31.030s-31.030 13.893-31.030 31.030v0 37.981zM479.666 685.258c-86.39 0-156.424-70.033-156.424-156.424v0-115.743c0-30.13-12.009-59.082-33.327-80.431l-26.531-26.5c-9.371-9.36-15.169-22.295-15.174-36.584v-0.001c0-26.065 21.101-47.166 47.166-47.166h443.578c26.065 0 47.166 21.101 47.166 47.166 0 13.715-5.461 26.872-15.174 36.585l-26.5 26.5c-20.603 20.588-33.349 49.035-33.358 80.46v115.714c0 86.38-70.016 156.406-156.391 156.424h-75.033zM261.182 528.834c0 120.655 97.801 218.467 218.452 218.484h75.033c120.666 0 218.484-97.819 218.484-218.484v0-115.743c0-13.653 5.461-26.841 15.174-36.523l26.5-26.531c20.603-20.588 33.349-49.035 33.358-80.46v-0.002c0-60.324-48.902-109.227-109.227-109.227v0h-443.578c-60.311 0.018-109.196 48.913-109.196 109.227v0c0 30.192 12.009 59.113 33.358 80.462l26.5 26.531c9.712 9.681 15.174 22.838 15.174 36.554v115.712z" />
<glyph unicode="&#xe926;" glyph-name="bell-notifications-alt1" d="M585.542 234.201c3.002 1.065 6.465 1.68 10.072 1.68 13.516 0 25.014-8.642 29.27-20.702l0.067-0.217 4.965-14.274c4.258-12.098 6.718-26.047 6.718-40.57 0-69.51-56.349-125.859-125.859-125.859-54.685 0-101.224 34.876-118.588 83.599l-0.273 0.879-4.934 14.274c-1.129 3.085-1.781 6.647-1.781 10.362 0 17.138 13.893 31.030 31.030 31.030 13.618 0 25.186-8.772 29.364-20.973l0.065-0.218 4.934-14.274c9.324-24.411 32.549-41.434 59.75-41.434 35.235 0 63.798 28.563 63.798 63.798 0 6.828-1.073 13.406-3.059 19.574l0.126-0.452-4.903 14.274c-1.071 3.010-1.69 6.483-1.69 10.1 0 13.52 8.646 25.020 20.711 29.273l0.217 0.067zM356.011 826.57c55.855 19.239 116.643-10.457 135.851-66.219l12.412-35.933c1.070-3.011 1.689-6.483 1.689-10.1 0-17.145-13.899-31.044-31.044-31.044-13.528 0-25.035 8.653-29.288 20.726l-0.067 0.217-12.35 35.902c-6.248 17.736-22.861 30.22-42.389 30.22-5.234 0-10.258-0.897-14.928-2.545l0.314 0.097zM356.011 826.539v0.031zM366.096 797.215l-10.085 29.355c-42.307-14.895-72.087-54.517-72.087-101.094 0-12.446 2.126-24.396 6.036-35.506l-0.23 0.749 12.381-35.902c4.578-11.787 15.831-19.991 29-19.991 17.138 0 31.030 13.893 31.030 31.030 0 3.27-0.506 6.421-1.443 9.381l0.060-0.22-12.35 35.902c-1.538 4.34-2.427 9.345-2.427 14.557 0 19.538 12.487 36.159 29.916 42.318l0.314 0.097zM646.33 579.258l37.64-109.413 0.245-0.796c9.897-28.018 30.459-51 57.471-64.367l34-16.581c11.973-5.948 21.314-16.399 25.92-29.499l-0.102 0.33c1.731-4.911 2.673-10.194 2.673-15.696 0-20.552-13.137-38.037-31.802-44.616l-419.013-144.283c-4.9-1.723-10.17-2.66-15.659-2.66-20.559 0-38.048 13.145-44.622 31.82l0.112-0.362c-1.905 5.394-2.942 11.198-2.942 17.244 0 8.243 1.927 16.036 5.22 22.651l16.446 33.699c13.25 27.152 15.112 58.399 5.275 86.916l-37.609 109.32 0.336-1.096c-5.731 16.269-8.849 33.77-8.849 51.999 0 68.141 43.562 126.108 105.451 147.908l69.839 24.085c16.274 5.735 33.781 8.855 52.017 8.855 68.155 0 126.131-43.579 147.921-105.488zM675.654 589.312l29.324 10.116c-30.429 86.473-111.406 147.345-206.6 147.345-25.47 0-49.921-4.357-72.651-12.368l1.53 0.47-70.935-24.421c-86.473-30.429-147.345-111.406-147.345-206.6 0-25.47 4.357-49.921 12.368-72.651l-0.47 1.53 37.609-109.32c4.468-13.002 3.631-27.183-2.389-39.502l-16.446-33.73c-7.247-14.557-11.488-31.706-11.488-49.846 0-13.287 2.276-26.043 6.458-37.898l-0.245 0.797c15.206-43.232 55.687-73.667 103.276-73.667 12.744 0 24.978 2.183 36.349 6.194l-0.765-0.235 419.312 144.384c43.229 15.218 73.659 55.703 73.659 103.295 0 12.737-2.179 24.964-6.186 36.33l0.235-0.765zM860.284 378.802l-0.245 0.796c-9.903 28.014-30.463 50.994-57.471 64.367l-33.73 16.446c-12.288 5.989-21.721 16.632-26.19 29.634l-37.671 109.382-29.355-10.116z" />
<glyph unicode="&#xe927;" glyph-name="bell-notifications" d="M752.112 650.349l0.078-0.001c39.271-0.839 70.847-32.936 70.847-72.408s-31.577-71.569-70.926-72.409l0.078 0.001c-0.524-0.011-1.050-0.017-1.577-0.017-39.999 0-72.425 32.426-72.425 72.425s32.426 72.425 72.425 72.425c0.527 0 1.053-0.006 1.499-0.016zM752.112 712.409c-0.608 0.010-1.325 0.016-2.043 0.016-74.274 0-134.485-60.211-134.485-134.485s60.211-134.485 134.485-134.485c0.718 0 1.435 0.006 2.151 0.017l-0.108-0.001c73.39 1.15 132.443 60.914 132.443 134.47s-59.052 133.319-132.334 134.468l-0.108 0.001zM271.205 508.106c0 120.666 97.819 218.484 218.484 218.484 0.011 0 0.022 0 0.033 0h74.999c52.286 0 99.39-19.053 136.533-49.028 7.069-5.736 11.55-14.423 11.55-24.157 0-17.141-13.896-31.037-31.037-31.037-7.407 0-14.209 2.595-19.545 6.925l0.058-0.045c-27.183 21.969-60.819 35.281-97.621 35.281h-74.938c-86.39 0-156.424-70.033-156.424-156.424v0-115.743c0-30.161-12.009-59.082-33.327-80.431l-26.531-26.5c-9.371-9.36-15.169-22.295-15.174-36.584v-0.001c0-26.065 21.101-47.166 47.166-47.166h443.578c26.065 0 47.166 21.101 47.166 47.166 0 13.715-5.461 26.872-15.174 36.585l-26.5 26.5c-20.603 20.588-33.349 49.035-33.358 80.46v82.17c0 17.138 13.893 31.030 31.030 31.030s31.030-13.893 31.030-31.030v0-82.168c0-13.684 5.461-26.872 15.174-36.585l26.531-26.5c20.591-20.592 33.327-49.038 33.327-80.459 0-0.001 0-0.002 0-0.003v0c0-60.324-48.902-109.227-109.227-109.227h-443.578c-60.324 0-109.227 48.902-109.227 109.227v0c0 30.192 12.009 59.113 33.358 80.462l26.5 26.5c9.712 9.712 15.174 22.9 15.174 36.585v115.712zM622.033 201.744c17.138 0 31.030-13.893 31.030-31.030v0-15.081c0-0.009 0-0.020 0-0.031 0-69.51-56.349-125.859-125.859-125.859-69.499 0-125.841 56.331-125.859 125.826v15.114c0 17.138 13.893 31.030 31.030 31.030s31.030-13.893 31.030-31.030v0-15.112c0.018-35.222 28.574-63.767 63.798-63.767 35.235 0 63.798 28.563 63.798 63.798 0 0.011 0 0.022 0 0.033v-0.002 15.081c0 17.138 13.893 31.030 31.030 31.030v0zM420.336 729.662c0 59.022 47.847 106.868 106.868 106.868s106.868-47.847 106.868-106.868v-37.981c0-17.138-13.893-31.030-31.030-31.030s-31.030 13.893-31.030 31.030v0 37.981c0 24.747-20.061 44.808-44.808 44.808s-44.808-20.061-44.808-44.808v0-37.981c0-17.138-13.893-31.030-31.030-31.030s-31.030 13.893-31.030 31.030v0 37.981z" />
<glyph unicode="&#xe928;" glyph-name="blackboard-chart" d="M59.299 806.803c0 17.138 13.893 31.030 31.030 31.030v0h842.969c17.138 0 31.030-13.893 31.030-31.030s-13.893-31.030-31.030-31.030v0h-843c-17.138 0-31.030 13.893-31.030 31.030v0zM132.499 837.803c17.138 0 31.030-13.893 31.030-31.030v0-491.582c0-29.013 26.19-56.599 63.798-56.599h569.003c37.609 0 63.798 27.617 63.798 56.599v491.582c0 17.138 13.893 31.030 31.030 31.030s31.030-13.893 31.030-31.030v0-491.582c0-67.801-58.709-118.66-125.859-118.66h-569.034c-67.15 0-125.859 50.859-125.859 118.66v491.582c0 17.138 13.893 31.030 31.030 31.030v0zM539.865 255.209c4.097 2.132 8.946 3.382 14.088 3.382 11.996 0 22.402-6.807 27.567-16.77l0.081-0.173 84.309-165.485c2.147-4.109 3.407-8.975 3.407-14.136 0-17.138-13.893-31.030-31.030-31.030-12.015 0-22.435 6.829-27.591 16.817l-0.081 0.174-84.309 165.485c-2.132 4.097-3.382 8.946-3.382 14.088 0 11.996 6.807 22.402 16.77 27.567l0.173 0.081zM483.762 255.209c10.135-5.246 16.942-15.652 16.942-27.648 0-5.141-1.25-9.991-3.464-14.26l0.081 0.173-84.309-165.454c-5.237-10.162-15.657-16.99-27.672-16.99-17.138 0-31.030 13.893-31.030 31.030 0 5.16 1.26 10.026 3.488 14.308l-0.081-0.172 84.309 165.485c5.246 10.135 15.652 16.942 27.648 16.942 5.141 0 9.991-1.25 14.26-3.464l-0.173 0.081zM702.526 621.646c5.503-5.596 8.901-13.277 8.901-21.752 0-8.66-3.548-16.492-9.269-22.121l-140.509-137.903c-5.594-5.494-13.269-8.885-21.737-8.885s-16.143 3.391-21.741 8.89l0.005-0.005-62.588 61.44-90.671-89.026c-5.657-5.889-13.597-9.549-22.392-9.549-17.138 0-31.030 13.893-31.030 31.030 0 9.004 3.835 17.111 9.96 22.78l0.020 0.019 112.392 110.344c5.593 5.485 13.262 8.87 21.721 8.87s16.129-3.385 21.726-8.875l-0.005 0.005 62.588-61.409 118.753 116.55c5.594 5.494 13.269 8.885 21.737 8.885 8.668 0 16.506-3.554 22.136-9.284l0.004-0.005z" />
<glyph unicode="&#xe929;" glyph-name="bones-broken" d="M638.79 412.688c-0.282-0.004-0.616-0.006-0.949-0.006-31.475 0-58.178 20.428-67.576 48.749l-0.145 0.503-14.491 41.363-43.846 14.895c-28.679 9.92-48.906 36.692-48.906 68.189 0 20.331 8.428 38.694 21.982 51.785l0.021 0.020 66.188 63.705v26.872c-0.004 0.369-0.007 0.805-0.007 1.241 0 64.21 52.052 116.262 116.262 116.262 63.773 0 115.554-51.347 116.254-114.954l0.001-0.066c63.052-1.499 113.593-52.967 113.593-116.24 0-64.214-52.056-116.271-116.271-116.271-0.073 0-0.146 0-0.219 0h-26.458l-64.14-66.188c-12.645-12.307-29.936-19.897-49-19.897-0.807 0-1.61 0.014-2.41 0.041l0.116-0.003zM667.338 785.051c-29.939 0-54.21-24.271-54.21-54.21v0-41.363c-0.147-8.743-3.748-16.618-9.494-22.341l-0.001-0.001-75.714-72.828c-1.987-1.749-3.234-4.298-3.234-7.138 0-2.616 1.058-4.984 2.769-6.702v0c1.148-1.241 2.576-2.172 4.189-2.7l58.337-19.456c9.397-3.199 16.661-10.462 19.794-19.638l0.066-0.221 19.425-58.337c0.905-3.362 3.606-5.918 6.986-6.6l0.058-0.010c0.575-0.118 1.235-0.186 1.911-0.186 2.822 0 5.369 1.177 7.177 3.068l0.004 0.004 73.232 75.714c5.526 5.872 13.349 9.528 22.026 9.528 0.111 0 0.222-0.001 0.332-0.002h41.346c29.931 0 54.194 24.264 54.194 54.194s-24.264 54.194-54.194 54.194h-28.113c-17.138 0-31.030 13.893-31.030 31.030v0 28.548c0.009 0.377 0.015 0.821 0.015 1.267 0 29.939-24.271 54.21-54.21 54.21-0.584 0-1.165-0.009-1.744-0.028l0.085 0.002zM326.811 711.385c5.614-5.616 13.37-9.090 21.938-9.092v0c0.13-0.002 0.284-0.003 0.438-0.003 16.898 0 30.596 13.698 30.596 30.596 0 0.154-0.001 0.307-0.003 0.461v-0.023 41.363c0 17.138-13.893 31.030-31.030 31.030s-31.030-13.893-31.030-31.030v0-41.363c0.002-8.568 3.476-16.324 9.092-21.938v0zM183.265 536.747h41.394c17.138 0 31.030 13.893 31.030 31.030s-13.893 31.030-31.030 31.030v0h-41.394c-17.138 0-31.030-13.893-31.030-31.030s13.893-31.030 31.030-31.030v0zM232.076 660.868c-0.029 0-0.064 0-0.099 0-8.533 0-16.251 3.49-21.805 9.12l-41.397 41.397c-5.845 5.65-9.473 13.561-9.473 22.32 0 17.138 13.893 31.030 31.030 31.030 8.758 0 16.669-3.629 22.311-9.464l0.008-0.009 41.363-41.394c5.703-5.568 9.24-13.332 9.24-21.923s-3.537-16.355-9.234-21.917l-0.006-0.006c-5.356-5.611-12.894-9.1-21.247-9.1-0.243 0-0.485 0.003-0.727 0.009l0.036-0.001zM657.842 90.81c5.614-5.616 13.37-9.090 21.938-9.092v0c0.14-0.002 0.304-0.004 0.469-0.004 16.88 0 30.565 13.684 30.565 30.565 0 0.165-0.001 0.33-0.004 0.494v-0.025 41.394c0 17.138-13.893 31.030-31.030 31.030s-31.030-13.893-31.030-31.030v0-41.394c0.002-8.568 3.476-16.324 9.092-21.938v0zM845.265 288.597h-41.363c-17.138 0-31.030 13.893-31.030 31.030s13.893 31.030 31.030 31.030v0h41.363c17.138 0 31.030-13.893 31.030-31.030s-13.893-31.030-31.030-31.030v0zM825.934 125.44c3.755-1.552 7.82-2.358 11.885-2.327 0.202-0.005 0.44-0.008 0.678-0.008 8.357 0 15.899 3.488 21.25 9.089l0.011 0.011c5.695 5.571 9.227 13.335 9.227 21.923s-3.531 16.352-9.221 21.917l-0.006 0.005-41.394 41.394c-5.535 5.2-13.007 8.395-21.226 8.395-17.138 0-31.030-13.893-31.030-31.030 0-8.226 3.201-15.705 8.425-21.258l-0.015 0.016 41.363-41.363c2.797-2.829 6.138-5.115 9.853-6.689l0.201-0.076zM280.266 73.247c20.857-20.344 49.4-32.893 80.873-32.893 0.15 0 0.3 0 0.449 0.001h-0.023c64.223 0.011 116.282 52.077 116.282 116.302 0 0.567-0.004 1.134-0.012 1.699l0.001-0.086v26.872l65.784 62.898c13.605 13.308 22.041 31.853 22.041 52.367 0 5.635-0.636 11.121-1.841 16.391l0.095-0.492c-5.727 24.834-23.713 44.453-47.093 52.385l-0.507 0.149-41.363 14.46-14.491 41.394c-7.79 24.062-27.547 42.171-52.071 47.485l-0.463 0.084c-4.984 1.246-10.706 1.961-16.594 1.961-20.331 0-38.672-8.524-51.643-22.193l-0.029-0.031-63.302-65.784h-28.548c-64.13-0.112-116.074-52.125-116.074-116.27 0-63.272 50.54-114.741 113.453-116.237l0.139-0.003c0.652-30.379 13.188-59.268 34.94-80.462zM209.486 308.271c9.807 9.811 23.355 15.882 38.321 15.888h0.001l40.122-0.434c8.409 0.155 16.446 3.568 22.342 9.526l72.425 77.359c1.896 2.025 4.586 3.286 7.571 3.286 4.523 0 8.369-2.897 9.784-6.937l0.022-0.073 19.022-57.903c3.251-9.264 10.51-16.39 19.64-19.394l0.219-0.062 57.499-19.456c3.45-1.157 6.077-3.917 7.026-7.372l0.018-0.076c0.119-0.624 0.188-1.341 0.188-2.075 0-3.035-1.169-5.798-3.080-7.862l0.007 0.008-75.311-72.394c-5.872-5.526-9.528-13.349-9.528-22.026 0-0.111 0.001-0.222 0.002-0.332v0.017-41.363c0.010-0.386 0.016-0.841 0.016-1.297 0-29.939-24.271-54.21-54.21-54.21s-54.21 24.271-54.21 54.21c0 0.456 0.006 0.911 0.017 1.364l-0.001-0.067v28.144c-0.011 8.557-3.483 16.3-9.092 21.907v0c-5.368 5.629-12.927 9.13-21.302 9.13-0.224 0-0.447-0.002-0.669-0.007l0.033 0.001h-28.548c-0.007 0-0.016 0-0.024 0-29.922 0-54.179 24.257-54.179 54.179 0 14.967 6.069 28.517 15.881 38.322v0z" />
<glyph unicode="&#xe92a;" glyph-name="bones" d="M545.885 710.547c0.009 69.786 56.584 126.355 126.371 126.355 69.793 0 126.371-56.578 126.371-126.371 0-0.005 0-0.011 0-0.016v0.001-0.776h0.776c0.589 0.010 1.284 0.016 1.98 0.016 69.784 0 126.355-56.571 126.355-126.355s-56.571-126.355-126.355-126.355c-0.696 0-1.391 0.006-2.085 0.017l0.105-0.001h-74.224c-0.001 0-0.001 0-0.002 0-2.861 0-5.45-1.162-7.321-3.041v0l-216.374-216.374c-1.841-1.851-2.979-4.403-2.979-7.22 0-0.014 0-0.029 0-0.043v0.002-74.193c0-69.793-56.578-126.371-126.371-126.371s-126.371 56.578-126.371 126.371v0 0.776h-0.745c-69.784 0-126.355 56.571-126.355 126.355s56.571 126.355 126.355 126.355h74.193c0.004 0 0.010 0 0.015 0 2.857 0 5.442 1.163 7.308 3.040l216.375 216.375c1.841 1.851 2.979 4.403 2.979 7.22 0 0.014 0 0.029 0 0.043v-0.002 74.162zM672.24 774.842c-35.509 0-64.295-28.786-64.295-64.295v0-74.193c0-0.017 0-0.038 0-0.058 0-19.989-8.112-38.084-21.224-51.172l-0.001-0.001-0.062-0.031-216.219-216.281c-13.095-13.095-31.185-21.194-51.167-21.194-0.012 0-0.023 0-0.035 0h-74.223c-35.509 0-64.295-28.786-64.295-64.295s28.786-64.295 64.295-64.295h31.775c17.138 0 31.030-13.893 31.030-31.030v0-31.775c0.783-34.92 29.276-62.929 64.311-62.929 35.024 0 63.51 27.991 64.309 62.823l0.001 0.074v74.193c0 19.146 7.571 37.609 21.256 51.231l216.281 216.281c13.098 13.113 31.201 21.225 51.198 21.225 0.001 0 0.001 0 0.002 0h74.224c0.42-0.010 0.916-0.016 1.412-0.016 35.509 0 64.295 28.786 64.295 64.295s-28.786 64.295-64.295 64.295c-0.497 0-0.992-0.006-1.486-0.017l0.074 0.001h-31.806c-17.138 0-31.030 13.893-31.030 31.030v0 31.806c0 35.526-28.8 64.326-64.326 64.326v0z" />
<glyph unicode="&#xe92b;" glyph-name="bookmark-favorite-search" d="M761.235 342.776c5.615 5.613 13.371 9.085 21.938 9.085s16.323-3.472 21.939-9.085l116.519-116.519c5.612-5.616 9.083-13.372 9.083-21.938 0-17.141-13.896-31.037-31.037-31.037-8.574 0-16.337 3.477-21.954 9.098l-116.488 116.519c-5.613 5.615-9.085 13.371-9.085 21.938s3.472 16.323 9.085 21.939v0zM651.45 606.441l0.162-0.003c83.501-1.731 150.658-69.961 150.658-153.877s-67.158-152.146-150.82-153.879l-0.162 0.003c-83.501 1.731-150.658 69.961-150.658 153.877s67.158 152.146 150.82 153.879zM651.45 668.501c-117.692-2.059-212.31-97.95-212.31-215.94s94.618-213.881 212.117-215.937l0.193-0.003c117.692 2.059 212.31 97.95 212.31 215.94s-94.618 213.881-212.117 215.937l-0.193 0.003zM237.692 774.439c-28.548 0-51.696-23.118-51.696-51.696v-611.731l203.683 101.686c4.041 2.064 8.815 3.273 13.871 3.273s9.829-1.209 14.047-3.354l-0.176 0.081 203-101.655v156.641c0 17.138 13.893 31.030 31.030 31.030s31.030-13.893 31.030-31.030v0-206.879c-0.001-17.137-13.893-31.029-31.030-31.029-5.068 0-9.852 1.215-14.077 3.37l0.176-0.081-234.031 117.17-234.682-117.17c-4.041-2.064-8.815-3.273-13.871-3.273-17.132 0-31.021 13.883-31.030 31.013v661.939c0 0.009 0 0.020 0 0.031 0 62.826 50.931 113.757 113.757 113.757 0.011 0 0.022 0 0.033 0h330.967c0.009 0 0.020 0 0.031 0 62.826 0 113.757-50.931 113.757-113.757 0-0.011 0-0.022 0-0.033v0.002-85.271c0-17.138-13.893-31.030-31.030-31.030s-31.030 13.893-31.030 31.030v0 85.271c0 28.579-23.149 51.728-51.728 51.728h-330.969z" />
<glyph unicode="&#xe92c;" glyph-name="bookmark-favorite1" d="M328.704 774.439c-28.579 0-51.728-23.118-51.728-51.696v-610.894l215.661 111.895c4.152 2.201 9.078 3.494 14.305 3.494s10.153-1.293 14.474-3.575l-0.169 0.081 214.978-111.833v610.832c0 28.579-23.149 51.728-51.728 51.728h-355.793zM214.916 722.773c0 0.009 0 0.020 0 0.031 0 62.826 50.931 113.757 113.757 113.757 0.011 0 0.022 0 0.033 0h355.792c0.009 0 0.020 0 0.031 0 62.826 0 113.757-50.931 113.757-113.757 0-0.011 0-0.022 0-0.033v0.002-661.969c0-0.001 0-0.002 0-0.004 0-17.138-13.893-31.030-31.030-31.030-5.24 0-10.176 1.299-14.504 3.592l0.168-0.081-246.008 128-246.691-128c-4.144-2.191-9.059-3.478-14.274-3.478-17.128 0-31.014 13.877-31.030 31v661.94z" />
<glyph unicode="&#xe92d;" glyph-name="bullet-list-text1" d="M362.031 663.102c0 17.138 13.893 31.030 31.030 31.030v0h455.308c17.138 0 31.030-13.893 31.030-31.030s-13.893-31.030-31.030-31.030v0h-455.308c-17.138 0-31.030 13.893-31.030 31.030v0zM362.031 432.919c0 17.138 13.893 31.030 31.030 31.030v0h455.308c17.138 0 31.030-13.893 31.030-31.030s-13.893-31.030-31.030-31.030v0h-455.308c-17.138 0-31.030 13.893-31.030 31.030v0zM362.031 202.768c0 17.138 13.893 31.030 31.030 31.030v0h455.308c17.138 0 31.030-13.893 31.030-31.030s-13.893-31.030-31.030-31.030v0h-455.308c-17.138 0-31.030 13.893-31.030 31.030v0zM155.089 663.102c0 28.568 23.159 51.728 51.728 51.728s51.728-23.159 51.728-51.728v0c0-28.568-23.159-51.728-51.728-51.728s-51.728 23.159-51.728 51.728v0zM155.089 432.919c0 28.568 23.159 51.728 51.728 51.728s51.728-23.159 51.728-51.728v0c0-28.568-23.159-51.728-51.728-51.728s-51.728 23.159-51.728 51.728v0zM155.089 202.768c0 28.568 23.159 51.728 51.728 51.728s51.728-23.159 51.728-51.728v0c0-28.568-23.159-51.728-51.728-51.728s-51.728 23.159-51.728 51.728v0z" />
<glyph unicode="&#xe92e;" glyph-name="calendar-circle" d="M299.877 470.404c0 17.138 13.893 31.030 31.030 31.030v0h372.519c17.138 0 31.030-13.893 31.030-31.030s-13.893-31.030-31.030-31.030h-372.519c-17.138 0-31.030 13.893-31.030 31.030v0zM589.576 656.617c17.138 0 31.030-13.893 31.030-31.030v0-62.061c0-17.138-13.893-31.030-31.030-31.030s-31.030 13.893-31.030 31.030v0 62.061c0 17.138 13.893 31.030 31.030 31.030v0zM444.726 656.617c17.138 0 31.030-13.893 31.030-31.030v0-62.061c0-17.138-13.893-31.030-31.030-31.030s-31.030 13.893-31.030 31.030v0 62.061c0 17.138 13.893 31.030 31.030 31.030v0zM392.999 563.526c-0.009 0-0.020 0-0.031 0-17.138 0-31.030-13.893-31.030-31.030v0-223.511c0-17.138 13.893-31.030 31.030-31.030v0h248.367c17.138 0 31.030 13.893 31.030 31.030v0 223.511c0 17.138-13.893 31.030-31.030 31.030v0h-248.336zM299.877 532.496c0 51.413 41.678 93.091 93.091 93.091v0h248.367c51.413 0 93.091-41.678 93.091-93.091v0-223.511c0-51.413-41.678-93.091-93.091-93.091v0h-248.336c-0.009 0-0.020 0-0.031 0-51.413 0-93.091 41.678-93.091 93.091v0 223.511zM113.602 433.136c0 222.891 180.689 403.549 403.549 403.549s403.549-180.658 403.549-403.549c0-222.86-180.689-403.518-403.549-403.518s-403.549 180.658-403.549 403.487zM517.151 774.625c-188.602 0-341.488-152.886-341.488-341.488 0-188.571 152.886-341.457 341.488-341.457s341.488 152.886 341.488 341.457c0 188.602-152.886 341.488-341.488 341.488z" />
<glyph unicode="&#xe92f;" glyph-name="calendar-package-box-delivery" d="M698.896 380.602l-123.594-69.508c-5.356-3.033-8.917-8.685-8.937-15.171v-136.785c0-6.206 3.351-11.978 8.782-15.050l123.501-69.477c2.469-1.395 5.42-2.216 8.564-2.216s6.096 0.822 8.653 2.262l-0.088-0.046 123.563 69.415c5.318 3.047 8.849 8.68 8.875 15.139v136.91c-0.001 6.422-3.486 12.029-8.667 15.036l-0.083 0.045-123.408 69.446c-2.474 1.394-5.431 2.216-8.58 2.216s-6.106-0.822-8.669-2.262l0.089 0.046zM668.61 434.781c11.189 6.365 24.581 10.117 38.85 10.117s27.661-3.752 39.245-10.323l-0.395 0.206 0.093-0.031 123.718-69.632c24.156-13.932 40.153-39.62 40.153-69.044 0-0.054 0-0.108 0-0.162v0.008s0 0.031 0 0v-136.782c-0.047-29.498-16.139-55.227-40.014-68.931l-0.388-0.205-0.062-0.031-123.749-69.539c-11.189-6.365-24.581-10.117-38.85-10.117s-27.661 3.752-39.245 10.323l0.395-0.206-0.062 0.062-123.594 69.508c-24.28 13.89-40.383 39.63-40.401 69.133v136.94c0.074 29.56 16.27 55.32 40.257 68.961l0.393 0.206v-0.031l15.205-27.058-15.143 27.089 123.594 69.539zM707.305 258.653c17.138 0 31.030-13.893 31.030-31.030v0-186.275c0-17.138-13.893-31.030-31.030-31.030s-31.030 13.893-31.030 31.030v0 186.275c0 17.138 13.893 31.030 31.030 31.030v0zM899.91 335.608c2.492-4.368 3.961-9.598 3.961-15.171 0-11.559-6.32-21.642-15.693-26.981l-0.153-0.080-165.547-92.843c-4.372-2.499-9.609-3.972-15.189-3.972s-10.817 1.473-15.342 4.052l0.153-0.080-165.329 92.843c-9.559 5.411-15.906 15.512-15.906 27.095 0 17.138 13.893 31.030 31.030 31.030 5.607 0 10.866-1.487 15.406-4.088l-0.152 0.080 150.187-84.309 150.342 84.309c4.368 2.492 9.598 3.961 15.171 3.961 11.559 0 21.642-6.32 26.981-15.693l0.080-0.153zM630.877 858.779c17.138 0 31.030-13.893 31.030-31.030v0-82.758c0-17.138-13.893-31.030-31.030-31.030s-31.030 13.893-31.030 31.030v0 82.758c0 17.138 13.893 31.030 31.030 31.030v0zM299.753 858.779c17.138 0 31.030-13.893 31.030-31.030v0-82.758c0-17.138-13.893-31.030-31.030-31.030s-31.030 13.893-31.030 31.030v0 82.758c0 17.138 13.893 31.030 31.030 31.030v0zM103.176 579.413c0 17.138 13.893 31.030 31.030 31.030v0h662.249c17.138 0 31.030-13.893 31.030-31.030s-13.893-31.030-31.030-31.030v0h-662.249c-17.138 0-31.030 13.893-31.030 31.030v0zM103.176 662.202c0.018 85.709 69.502 155.183 155.214 155.183 0 0 0 0 0 0h413.882c85.711 0 155.196-69.474 155.214-155.181v-124.216c0-17.138-13.893-31.030-31.030-31.030s-31.030 13.893-31.030 31.030v0 124.214c-0.018 51.434-41.717 93.122-93.153 93.122h-413.882c-51.436 0-93.135-41.688-93.153-93.12v-372.521c0-51.447 41.706-93.153 93.153-93.153v0h124.152c17.138 0 31.030-13.893 31.030-31.030s-13.893-31.030-31.030-31.030v0h-124.152c-85.722 0-155.214 69.491-155.214 155.214v0 372.519z" />
<glyph unicode="&#xe930;" glyph-name="calendar-schedule-discount" d="M392.751 248.072h-123.283c-51.413 0-93.091 41.678-93.091 93.091v0 258.576h600.312v-51.728c0-17.138 13.893-31.030 31.030-31.030s31.030 13.893 31.030 31.030v0 165.485c0 85.688-69.464 155.152-155.152 155.152v0h-11.574v10.364c0 17.138-13.893 31.030-31.030 31.030s-31.030-13.893-31.030-31.030v0-10.364h-268.94v10.364c0 17.138-13.893 31.030-31.030 31.030s-31.030-13.893-31.030-31.030v0-10.364h-10.333c-85.688 0-155.152-69.464-155.152-155.152v0-372.364c0-85.688 69.464-155.152 155.152-155.152v0h124.121c17.138 0 31.030 13.893 31.030 31.030s-13.893 31.030-31.030 31.030v0zM269.467 806.617h10.333v-10.364c0-17.138 13.893-31.030 31.030-31.030s31.030 13.893 31.030 31.030v0 10.333h269.343v-10.333c0-17.138 13.893-31.030 31.030-31.030s31.030 13.893 31.030 31.030v0 10.333h10.333c51.413 0 93.091-41.678 93.091-93.091v0-51.696h-601.15v51.696c0 0.001 0 0.002 0 0.004 0 51.413 41.678 93.091 93.091 93.091 0.295 0 0.589-0.001 0.883-0.004h-0.045zM796.113 332.071c-5.72 5.534-13.524 8.944-22.125 8.944s-16.404-3.41-22.133-8.952l0.009 0.008-103.455-103.424c-5.543-5.722-8.959-13.532-8.959-22.14s3.416-16.418 8.967-22.149l-0.008 0.008c5.927-5.585 13.777-8.688 21.938-8.688 0.166-0.003 0.361-0.005 0.557-0.005 8.311 0 15.847 3.317 21.357 8.699l103.852 103.852c5.604 5.613 9.070 13.363 9.070 21.923s-3.466 16.309-9.070 21.923v0zM788.883 224.83c8.657 0 16.974-3.227 23.366-8.999 5.805-6.138 9.375-14.444 9.375-23.583s-3.569-17.445-9.39-23.599l0.015 0.016c-6.268-5.865-14.584-8.968-23.149-8.688-0.175-0.003-0.382-0.005-0.59-0.005-8.834 0-16.898 3.296-23.030 8.725l0.037-0.032c-5.896 6.423-9.309 14.801-9.526 23.583 0.155 8.751 3.537 17.129 9.526 23.583 6.143 5.582 14.34 8.999 23.335 8.999 0.011 0 0.022 0 0.033 0h-0.002zM891.283 426.806c-42.724 42.937-101.862 69.509-167.205 69.509-0.268 0-0.536 0-0.803-0.001h0.041c-131.235-0.188-237.548-106.618-237.548-237.878 0-131.377 106.502-237.878 237.878-237.878s237.878 106.502 237.878 237.878c0 65.77-26.692 125.306-69.834 168.367l-0.004 0.004h-0.403zM722.913 82.153c-93.646 4.622-167.823 81.674-167.823 176.050s74.177 171.428 167.41 176.034l0.412 0.016c96.921-0.473 175.362-78.925 175.818-175.805v-0.044c0 0 0 0 0-0.001 0-97.189-78.663-176.004-175.794-176.252h-0.024zM690.207 324.189c-0.257-9.124-3.83-17.367-9.551-23.61l0.025 0.027c-5.956-4.933-13.675-7.927-22.094-7.927-0.808 0-1.609 0.028-2.403 0.082l0.107-0.006c-0.338-0.013-0.735-0.020-1.134-0.020-8.326 0-15.915 3.153-21.639 8.33l0.028-0.025c-5.607 6.149-9.041 14.364-9.041 23.381s3.434 17.232 9.066 23.409l-0.025-0.027c6.111 5.683 14.331 9.171 23.366 9.171s17.255-3.488 23.387-9.191l-0.021 0.019c6.268-6.268 9.837-14.739 9.93-23.583z" />
<glyph unicode="&#xe931;" glyph-name="calendar-schedule-percent" d="M351.418 858.314v0c-17.138 0-31.030-13.893-31.030-31.030v-10.333h-51.728c-85.688 0-155.152-69.464-155.152-155.152v-455.121c0-85.688 69.464-155.152 155.152-155.152h496.485c85.688 0 155.152 69.464 155.152 155.152v455.121c0 85.688-69.464 155.152-155.152 155.152h-51.728v10.333c0 17.138-13.893 31.030-31.030 31.030s-31.030-13.893-31.030-31.030v-10.333h-268.909v10.333c0 17.138-13.893 31.030-31.030 31.030zM320.357 734.192v0c0-17.138 13.893-31.030 31.030-31.030s31.030 13.893 31.030 31.030v20.697h268.909v-20.697c0-17.138 13.893-31.030 31.030-31.030s31.030 13.893 31.030 31.030v20.697h51.759c51.413 0 93.091-41.678 93.091-93.091v-51.728h-682.667v51.728c0 51.413 41.678 93.091 93.091 93.091h51.728v-20.697zM175.569 206.677v341.333h682.667v-341.333c0-51.413-41.678-93.091-93.091-93.091v0h-496.485c-51.413 0-93.091 41.678-93.091 93.091v0zM625.695 395.776l-173.77-173.77c-5.617-5.621-13.379-9.098-21.954-9.098-17.141 0-31.037 13.896-31.037 31.037 0 8.567 3.471 16.323 9.083 21.938l173.77 173.77c5.617 5.621 13.379 9.098 21.954 9.098 17.141 0 31.037-13.896 31.037-31.037 0-8.567-3.471-16.323-9.083-21.938zM463.531 382.402l0.061 0.051c-7.525-6.4-17.275-10.261-27.928-10.261-1.004 0-2 0.034-2.854 0.094-10.55-0.372-20.821 3.444-28.641 10.643-7.354 8.254-11.388 18.96-11.388 30.099v-0.003c0 0.022 0 0.044 0 0.067 0 11.545 4.319 22.082 11.388 30.036 8.006 7.571 18.494 11.792 29.417 11.792h0.001c11.425-0.007 21.801-4.498 29.446-11.792l-0.009 0.010c7.652-7.859 12.401-18.558 12.515-30.388-0.31-11.264-4.53-22.032-11.978-30.317zM641.024 247.265c-0.124 11.388-4.624 22.311-12.505 30.379-8.006 7.571-18.525 11.792-29.448 11.792-10.892 0-21.411-4.22-29.417-11.792-7.323-8.254-11.388-18.991-11.388-30.099v0.003c0-0.022 0-0.044 0-0.067 0-11.545 4.319-22.082 11.388-30.036 7.82-7.23 18.122-11.047 28.672-10.643l-0.133 0.007c0.987-0.068 1.983-0.102 2.987-0.102 10.652 0 20.403 3.862 27.866 10.21 7.416 8.316 11.667 19.084 11.978 30.348z" />
<glyph unicode="&#xe932;" glyph-name="calendar-schedule-store-shop" d="M248.025 206.708h165.485c17.138 0 31.030-13.893 31.030-31.030s-13.893-31.030-31.030-31.030v0h-165.485c-85.589 0.246-154.905 69.563-155.151 155.128v372.387c0 85.688 69.464 155.152 155.152 155.152v0h10.333v10.302c0 17.138 13.893 31.030 31.030 31.030s31.030-13.893 31.030-31.030v0-10.333h268.94v10.333c0 17.138 13.893 31.030 31.030 31.030s31.030-13.893 31.030-31.030v0-10.333h10.736c85.422-0.457 154.521-69.697 154.748-155.13v-124.143c0-17.138-13.893-31.030-31.030-31.030s-31.030 13.893-31.030 31.030v0 10.364h-599.909v-259.010c0.247-51.226 41.83-92.656 93.090-92.656 0 0 0.001 0 0.001 0v0zM258.358 765.254h-10.333c-51.413 0-93.091-41.678-93.091-93.091v0-51.728h599.909v51.696c0 0 0 0.001 0 0.001 0 51.271-41.449 92.861-92.666 93.090h-10.758v-10.333c0-17.138-13.893-31.030-31.030-31.030s-31.030 13.893-31.030 31.030v0 10.333h-268.94v-10.333c0-17.138-13.893-31.030-31.030-31.030s-31.030 13.893-31.030 31.030v0 10.333zM917.349 315.997c-1.082-15.231-5.991-29.125-13.76-40.975l0.2 0.325c-6.516-9.371-15.019-17.284-24.824-23.149v-130.327c13.538-3.363 23.414-15.411 23.414-29.765 0-16.915-13.712-30.627-30.627-30.627-0.235 0-0.469 0.003-0.703 0.008l0.035-0.001h-335.5c-0.485-0.027-1.053-0.043-1.625-0.043-16.915 0-30.627 13.712-30.627 30.627 0 14.409 9.95 26.493 23.354 29.758l0.21 0.043v129.924c-22.984 15.503-37.898 41.444-37.898 70.868 0 13.176 2.991 25.654 8.331 36.792l-0.221-0.512 24.421 48.407c14.445 28.422 43.464 47.558 76.954 47.569h209.766c33.741-0.25 62.837-19.882 76.731-48.302l0.224-0.508 24.39-48.004c6.144-13.157 8.813-27.617 7.789-42.108zM691.045 194.731c3.567 1.55 7.722 2.451 12.088 2.451 0.005 0 0.010 0 0.014 0h-0.001c0.118 0.002 0.257 0.003 0.396 0.003 16.932 0 30.658-13.726 30.658-30.658 0-0.426-0.009-0.851-0.026-1.273l0.002 0.060v-41.363h82.727v113.757c-20.033 1.827-37.877 9.98-51.816 22.419l0.088-0.077c-16.983-13.169-38.594-21.11-62.061-21.11s-45.078 7.941-62.293 21.283l0.232-0.173c-13.857-12.33-31.681-20.476-51.338-22.315l-0.358-0.027v-113.757h82.727v41.363c-0.007 0.246-0.011 0.535-0.011 0.826 0 12.783 7.729 23.76 18.769 28.514l0.202 0.077zM576.946 378.802l-24.421-48.004v-0.807c-1.123-2.653-1.775-5.739-1.775-8.977 0-9.303 5.386-17.347 13.211-21.185l0.139-0.062c3.163-1.568 6.887-2.485 10.826-2.485 0.121 0 0.243 0.001 0.364 0.003h-0.018c0.658-0.047 1.426-0.073 2.2-0.073 14.451 0 26.738 9.267 31.242 22.183l0.070 0.232c3.742 13.43 15.843 23.129 30.218 23.18h3.73c13.662-0.081 25.224-8.977 29.292-21.285l0.063-0.219c4.63-14.122 17.692-24.141 33.094-24.141s28.464 10.019 33.024 23.895l0.070 0.246c4.009 12.564 15.579 21.504 29.237 21.504 0.052 0 0.105 0 0.157 0h-0.008c0.084 0.001 0.183 0.001 0.282 0.001 14.74 0 27.231-9.633 31.52-22.946l0.065-0.234c3.398-12.99 15.029-22.421 28.863-22.421 0.763 0 1.518 0.029 2.267 0.085l-0.1-0.006c1.037-0.161 2.232-0.254 3.449-0.254 8.198 0 15.419 4.183 19.645 10.531l0.054 0.087c1.839 3.347 2.921 7.334 2.921 11.574s-1.082 8.228-2.985 11.701l-23.922 47.473c-4.209 7.854-12.184 13.208-21.446 13.651l-0.058 0.002h-209.765c-9.311-0.166-17.354-5.432-21.47-13.117l-0.065-0.133z" />
<glyph unicode="&#xe933;" glyph-name="calendar-schedule" d="M289.202 236.746c0.14 17.031 13.979 30.783 31.029 30.783 0.088 0 0.175 0 0.263-0.001h-0.013l203.031-1.552c17.038-0.132 30.798-13.974 30.798-31.030 0-17.138-13.893-31.031-31.031-31.031-0.082 0-0.164 0-0.245 0.001h0.013l-203.031 1.552c-17.031 0.14-30.783 13.979-30.783 31.029 0 0.088 0 0.175 0.001 0.263v-0.013zM496.175 402.075c0 17.138 13.893 31.030 31.030 31.030v0h206.972c17.138 0 31.030-13.893 31.030-31.030s-13.893-31.030-31.030-31.030v0h-206.972c-17.138 0-31.030 13.893-31.030 31.030v0zM123.656 567.591c0 17.138 13.893 31.030 31.030 31.030v0h745.038c17.138 0 31.030-13.893 31.030-31.030s-13.893-31.030-31.030-31.030v0h-745.038c-17.138 0-31.030 13.893-31.030 31.030v0zM361.658 867.685c17.138 0 31.030-13.893 31.030-31.030v0-124.183c0-17.138-13.893-31.030-31.030-31.030s-31.030 13.893-31.030 31.030v0 124.183c0 17.138 13.893 31.030 31.030 31.030v0zM692.783 867.685c17.138 0 31.030-13.893 31.030-31.030v0-124.183c0-17.138-13.893-31.030-31.030-31.030s-31.030 13.893-31.030 31.030v0 124.183c0 17.138 13.893 31.030 31.030 31.030v0zM278.869 743.533c-0.009 0-0.020 0-0.031 0-51.43 0-93.122-41.692-93.122-93.122v0-455.308c0-51.43 41.692-93.122 93.122-93.122 0.011 0 0.022 0 0.033 0h496.669c0.009 0 0.020 0 0.031 0 51.43 0 93.122 41.692 93.122 93.122v0 455.308c0 51.43-41.692 93.122-93.122 93.122-0.011 0-0.022 0-0.033 0h-496.669zM123.656 650.411c0 85.705 69.478 155.183 155.183 155.183 0.011 0 0.022 0 0.033 0h496.669c0.009 0 0.020 0 0.031 0 85.705 0 155.183-69.478 155.183-155.183v-455.308c0-85.705-69.478-155.183-155.183-155.183-0.011 0-0.022 0-0.033 0h-496.669c-0.009 0-0.020 0-0.031 0-85.705 0-155.183 69.478-155.183 155.183v455.308z" />
<glyph unicode="&#xe934;" glyph-name="calendar" d="M692.938 877.894c17.138 0 31.030-13.893 31.030-31.030v0-165.485c0-17.138-13.893-31.030-31.030-31.030s-31.030 13.893-31.030 31.030v0 165.485c0 17.138 13.893 31.030 31.030 31.030v0zM361.968 877.894c17.138 0 31.030-13.893 31.030-31.030v0-165.485c0-17.138-13.893-31.030-31.030-31.030s-31.030 13.893-31.030 31.030v0 165.485c0 17.138 13.893 31.030 31.030 31.030v0zM124.059 557.258c0 17.138 13.893 31.030 31.030 31.030v0h744.727c17.138 0 31.030-13.893 31.030-31.030s-13.893-31.030-31.030-31.030v0h-744.727c-17.138 0-31.030 13.893-31.030 31.030v0zM124.059 681.348c0 0.018 0 0.040 0 0.062 0 62.826 50.931 113.757 113.757 113.757 0.011 0 0.022 0 0.033 0h579.179c62.826 0 113.757-50.931 113.757-113.757 0-0.011 0-0.022 0-0.033v0.002-537.848c0-62.826-50.931-113.757-113.757-113.757v0h-579.181c-0.009 0-0.020 0-0.031 0-62.826 0-113.757 50.931-113.757 113.757v0 537.848zM237.847 733.106c-28.579 0-51.728-23.149-51.728-51.728v-537.848c0-28.579 23.149-51.728 51.728-51.728h579.181c28.579 0 51.728 23.149 51.728 51.728v537.848c0 28.548-23.149 51.728-51.728 51.728h-579.181z" />
</font>
</defs>
</svg>
