<svg width="32" height="32" viewBox="0 0 32 32" fill="none" xmlns="http://www.w3.org/2000/svg">
<path fill-rule="evenodd" clip-rule="evenodd" d="M4.99994 6.66667C4.99994 5.74562 5.74556 5 6.66661 5H10.3333C11.2543 5 11.9999 5.74562 11.9999 6.66667V10.3333C11.9999 11.2544 11.2543 12 10.3333 12H6.66661C5.74556 12 4.99994 11.2544 4.99994 10.3333V6.66667ZM6.66661 3C4.64099 3 2.99994 4.64105 2.99994 6.66667V10.3333C2.99994 12.359 4.64099 14 6.66661 14H10.3333C12.3589 14 13.9999 12.359 13.9999 10.3333V6.66667C13.9999 4.64105 12.3589 3 10.3333 3H6.66661ZM20 6.66675C20 5.7457 20.7456 5.00008 21.6667 5.00008H25.3333C26.2544 5.00008 27 5.7457 27 6.66675V10.3334C27 11.2545 26.2544 12.0001 25.3333 12.0001H21.6667C20.7456 12.0001 20 11.2545 20 10.3334V6.66675ZM21.6667 3.00008C19.6411 3.00008 18 4.64113 18 6.66675V10.3334C18 12.359 19.6411 14.0001 21.6667 14.0001H25.3333C27.359 14.0001 29 12.359 29 10.3334V6.66675C29 4.64113 27.359 3.00008 25.3333 3.00008H21.6667ZM6.66668 20.0001C5.74563 20.0001 5.00001 20.7457 5.00001 21.6667V25.3334C5.00001 26.2545 5.74563 27.0001 6.66668 27.0001H10.3333C11.2544 27.0001 12 26.2545 12 25.3334V21.6667C12 20.7457 11.2544 20.0001 10.3333 20.0001H6.66668ZM3.00001 21.6667C3.00001 19.6411 4.64106 18.0001 6.66668 18.0001H10.3333C12.359 18.0001 14 19.6411 14 21.6667V25.3334C14 27.359 12.359 29.0001 10.3333 29.0001H6.66668C4.64106 29.0001 3.00001 27.359 3.00001 25.3334V21.6667ZM20 21.6667C20 20.7457 20.7456 20.0001 21.6667 20.0001H25.3333C26.2544 20.0001 27 20.7457 27 21.6667V25.3334C27 26.2545 26.2544 27.0001 25.3333 27.0001H21.6667C20.7456 27.0001 20 26.2545 20 25.3334V21.6667ZM21.6667 18.0001C19.6411 18.0001 18 19.6411 18 21.6667V25.3334C18 27.359 19.6411 29.0001 21.6667 29.0001H25.3333C27.359 29.0001 29 27.359 29 25.3334V21.6667C29 19.6411 27.359 18.0001 25.3333 18.0001H21.6667Z" fill="#6D7188"/>
</svg>
